<svg xmlns="http://www.w3.org/2000/svg" xmlns:xlink="http://www.w3.org/1999/xlink" width="150.771" height="84.767" viewBox="0 0 150.771 84.767">
  <defs>
    <clipPath id="clip-path">
      <rect id="Rectangle_2079" data-name="Rectangle 2079" width="150.771" height="84.767" fill="none"/>
    </clipPath>
    <clipPath id="clip-path-2">
      <rect id="Rectangle_2078" data-name="Rectangle 2078" width="150.992" height="84.988" fill="none"/>
    </clipPath>
  </defs>
  <g id="Group_2039" data-name="Group 2039" transform="translate(-92.017 -87.875)">
    <g id="Group_2038" data-name="Group 2038" transform="translate(92.017 87.875)" clip-path="url(#clip-path)">
      <g id="Group_2037" data-name="Group 2037" transform="translate(-0.11 -0.111)" style="isolation: isolate">
        <g id="Group_2036" data-name="Group 2036">
          <g id="Group_2035" data-name="Group 2035" clip-path="url(#clip-path-2)">
            <g id="Group_2034" data-name="Group 2034" transform="translate(0.11 0.111)">
              <g id="Group_2033" data-name="Group 2033" clip-path="url(#clip-path)">
                <path id="Path_2395" data-name="Path 2395" d="M254.622,147.767a12.662,12.662,0,0,1-5.3-1.064,10.021,10.021,0,0,1-3.759-2.837,12.857,12.857,0,0,1-2.153-3.948,14.228,14.228,0,0,1-.732-4.564,15.187,15.187,0,0,1,.756-4.812,13.618,13.618,0,0,1,2.211-4.138,10.2,10.2,0,0,1,3.841-2.956,12.825,12.825,0,0,1,5.416-1.1,7.908,7.908,0,0,1,6.761,3.192v-2.577h5.747v24.26h-5.887v-3.31a8.048,8.048,0,0,1-6.9,3.854m.732-4.729a5.67,5.67,0,0,0,4.954-2.165,9.735,9.735,0,0,0,1.549-5.781,9.391,9.391,0,0,0-1.643-5.852,5.88,5.88,0,0,0-4.978-2.139,6.054,6.054,0,0,0-5,2.151,8.951,8.951,0,0,0-1.738,5.793,9.049,9.049,0,0,0,1.738,5.818,6.158,6.158,0,0,0,5.119,2.175" transform="translate(-185.982 -109.375)" fill="#ef7923"/>
                <path id="Path_2396" data-name="Path 2396" d="M336.882,131.9a9.381,9.381,0,0,1-4.434-1.052,7.11,7.11,0,0,1-2.872-2.5v3h-6.005q.046-1.607.094-2.862c.032-.835.055-1.429.071-1.784s.027-.663.035-.923.012-.437.012-.532V96.9H329.6v13.6a3.286,3.286,0,0,1,.591-1.04,8.088,8.088,0,0,1,1.337-1.313,7.31,7.31,0,0,1,2.364-1.182,10.7,10.7,0,0,1,3.3-.485A9.974,9.974,0,0,1,345.254,110a13.693,13.693,0,0,1,2.954,9.1,14.624,14.624,0,0,1-.909,5.2,12.249,12.249,0,0,1-2.448,4.067,11.117,11.117,0,0,1-3.606,2.59,10.5,10.5,0,0,1-4.362.934m-1.087-4.729a6.1,6.1,0,0,0,2.872-.65,5.068,5.068,0,0,0,1.963-1.786,8.93,8.93,0,0,0,1.086-2.507,11.413,11.413,0,0,0,.367-2.956,9.963,9.963,0,0,0-1.56-5.769,5.168,5.168,0,0,0-4.542-2.269,5.956,5.956,0,0,0-4.917,2.281,8.791,8.791,0,0,0-1.822,5.663,10.54,10.54,0,0,0,.7,3.914,6.724,6.724,0,0,0,2.21,2.92,5.815,5.815,0,0,0,3.642,1.159" transform="translate(-236.431 -93.504)" fill="#ef7923"/>
                <rect id="Rectangle_2075" data-name="Rectangle 2075" width="5.793" height="34.452" transform="translate(116.363 3.397)" fill="#ef7923"/>
                <path id="Path_2397" data-name="Path 2397" d="M442.111,147.768q-6.123,0-9.658-3.5a12.3,12.3,0,0,1-3.535-9.15,13.838,13.838,0,0,1,.851-4.847,12.979,12.979,0,0,1,2.4-4.067,10.954,10.954,0,0,1,3.924-2.815,13,13,0,0,1,5.261-1.04,11.913,11.913,0,0,1,5.037.993,8.322,8.322,0,0,1,3.4,2.778,12.711,12.711,0,0,1,1.857,4.008,18.779,18.779,0,0,1,.6,4.919,3.467,3.467,0,0,1-.118,1.04H435.113a6.865,6.865,0,0,0,2.163,5.251,8.085,8.085,0,0,0,5.38,1.7,13.271,13.271,0,0,0,7.662-2.6l1.584,4.257a17.566,17.566,0,0,1-4.623,2.328,16.9,16.9,0,0,1-5.167.745m-6.927-15.584h12.059a6.661,6.661,0,0,0-1.916-3.948,5.179,5.179,0,0,0-3.641-1.37,6.4,6.4,0,0,0-4.234,1.417,6.892,6.892,0,0,0-2.269,3.9" transform="translate(-302.133 -109.375)" fill="#ef7923"/>
                <rect id="Rectangle_2076" data-name="Rectangle 2076" width="23.364" height="3.893" transform="translate(34.42 37.852)" fill="#ffb238"/>
                <path id="Path_2398" data-name="Path 2398" d="M98.255,244.457V224.121H93.738V220.2h4.517v-.946q0-1.655.07-2.743a16.519,16.519,0,0,1,.308-2.234,5.6,5.6,0,0,1,.674-1.845,6.109,6.109,0,0,1,1.182-1.347,5.012,5.012,0,0,1,1.832-.994,15.425,15.425,0,0,1,2.612-.544,27.458,27.458,0,0,1,3.536-.2h1.252l-.212,4.565q-1.348,0-2.14.047a5.693,5.693,0,0,0-1.466.272,2.622,2.622,0,0,0-.981.52,2.291,2.291,0,0,0-.521.969,6,6,0,0,0-.259,1.419q-.048.746-.047,2.046V220.2h5.461v3.924H104.1v20.335Z" transform="translate(-93.09 -163.631)" fill="#ef7923"/>
                <path id="Path_2399" data-name="Path 2399" d="M151.137,262.991a9.142,9.142,0,0,1-6.857-2.519,9.476,9.476,0,0,1-2.459-6.917V238.187h5.816v15.274a4.28,4.28,0,0,0,4.706,4.8,5.178,5.178,0,0,0,3.889-1.313,5.928,5.928,0,0,0,1.266-4.221V238.187h5.863V255.92l.285,6.527h-6.054l-.094-3.594a3.633,3.633,0,0,1-.532,1.146,8.472,8.472,0,0,1-1.135,1.337,5.623,5.623,0,0,1-1.963,1.182,7.614,7.614,0,0,1-2.731.473" transform="translate(-123.078 -181.621)" fill="#ef7923"/>
                <path id="Path_2400" data-name="Path 2400" d="M222.447,250.156h-2.364q-1.419,0-2.46-.07a15.233,15.233,0,0,1-2.141-.308,7.73,7.73,0,0,1-1.867-.627,6.45,6.45,0,0,1-1.478-1.052A5,5,0,0,1,211,246.5a9.862,9.862,0,0,1-.673-2.234,16.034,16.034,0,0,1-.248-2.98V229.845h-5.06V225.92h5.3v-5.675l5.6-1.726v7.4h6.338v3.924H215.92v11.8a7.669,7.669,0,0,0,.178,1.833,3.157,3.157,0,0,0,.532,1.159,2.1,2.1,0,0,0,1.194.673,10.514,10.514,0,0,0,1.833.285q.994.071,2.79.07Z" transform="translate(-162.494 -169.354)" fill="#ef7923"/>
                <path id="Path_2401" data-name="Path 2401" d="M268.956,262.991a9.142,9.142,0,0,1-6.857-2.519,9.475,9.475,0,0,1-2.459-6.917V238.187h5.816v15.274a4.28,4.28,0,0,0,4.706,4.8,5.178,5.178,0,0,0,3.889-1.313,5.928,5.928,0,0,0,1.266-4.221V238.187h5.863V255.92l.285,6.527h-6.054l-.094-3.594a3.623,3.623,0,0,1-.532,1.146,8.473,8.473,0,0,1-1.135,1.337,5.623,5.623,0,0,1-1.963,1.182,7.614,7.614,0,0,1-2.731.473" transform="translate(-196.559 -181.621)" fill="#ef7923"/>
                <path id="Path_2402" data-name="Path 2402" d="M331.879,261.427V243.313q0-1.419-.118-2.954t-.236-2.365l-.118-.828h6.242v3.192a12.522,12.522,0,0,1,2.874-2.85,5.671,5.671,0,0,1,3.227-.958,9.586,9.586,0,0,1,2.411.354v5.131a9.43,9.43,0,0,0-2.931-.52,5.289,5.289,0,0,0-3.973,1.584,6.327,6.327,0,0,0-1.537,4.586v13.739Z" transform="translate(-241.317 -180.601)" fill="#ef7923"/>
                <path id="Path_2403" data-name="Path 2403" d="M383.805,261.97q-6.123,0-9.658-3.5a12.3,12.3,0,0,1-3.535-9.15,13.829,13.829,0,0,1,.85-4.847,12.979,12.979,0,0,1,2.4-4.067,10.954,10.954,0,0,1,3.924-2.815,12.989,12.989,0,0,1,5.261-1.04,11.913,11.913,0,0,1,5.037.993,8.318,8.318,0,0,1,3.4,2.778,12.7,12.7,0,0,1,1.857,4.007,18.77,18.77,0,0,1,.6,4.919,3.47,3.47,0,0,1-.118,1.04H376.807a6.866,6.866,0,0,0,2.163,5.25,8.083,8.083,0,0,0,5.38,1.7,13.271,13.271,0,0,0,7.662-2.6L393.6,258.9a17.565,17.565,0,0,1-4.623,2.328,16.891,16.891,0,0,1-5.167.746m-6.927-15.583h12.059a6.66,6.66,0,0,0-1.916-3.948,5.179,5.179,0,0,0-3.641-1.37,6.4,6.4,0,0,0-4.234,1.417,6.9,6.9,0,0,0-2.269,3.9" transform="translate(-265.769 -180.6)" fill="#ef7923"/>
                <path id="Path_2404" data-name="Path 2404" d="M450.726,262.049a18.289,18.289,0,0,1-5.863-.9A14.006,14.006,0,0,1,440.607,259l1.466-4.208a12.347,12.347,0,0,0,3.759,1.9,13.989,13.989,0,0,0,4.374.746,5.431,5.431,0,0,0,2.968-.662,2.385,2.385,0,0,0,1-2.153V254.2a1.673,1.673,0,0,0-.591-1.29,8.64,8.64,0,0,0-2.719-1.217l-3.453-1.111q-1.324-.425-2.2-.793a12.482,12.482,0,0,1-1.786-.934,5.178,5.178,0,0,1-1.419-1.241,5.564,5.564,0,0,1-.828-1.655,7.265,7.265,0,0,1-.32-2.258,6.961,6.961,0,0,1,.721-3.239,5.572,5.572,0,0,1,2-2.2,9.714,9.714,0,0,1,2.837-1.193,14.086,14.086,0,0,1,3.429-.391,18.7,18.7,0,0,1,4.635.591,13.226,13.226,0,0,1,4.067,1.751l-1.514,4.018a16.133,16.133,0,0,0-3.321-1.276,13.164,13.164,0,0,0-3.441-.52,6.32,6.32,0,0,0-2.909.5,1.718,1.718,0,0,0-.9,1.631,2.126,2.126,0,0,0,.283,1.182,3.076,3.076,0,0,0,1.182.875,24.053,24.053,0,0,0,2.886,1.111l3.143,1.064A13.314,13.314,0,0,1,457,249a5.411,5.411,0,0,1,1.845,2.151,7.821,7.821,0,0,1,.7,3.5,7.625,7.625,0,0,1-.532,2.909,6.107,6.107,0,0,1-1.395,2.128,7.476,7.476,0,0,1-2.034,1.372,9.986,9.986,0,0,1-2.377.768,13.617,13.617,0,0,1-2.483.224" transform="translate(-309.423 -180.679)" fill="#ef7923"/>
              </g>
            </g>
          </g>
        </g>
      </g>
    </g>
  </g>
</svg>
