<svg width="1264.402" height="71.401" viewBox="0 0 1264.402 71.401" xmlns="http://www.w3.org/2000/svg"><g id="svgGroup" stroke-linecap="round" fill-rule="evenodd" font-size="9pt" stroke="#ffffff00" stroke-width="0" fill="#757575" style="stroke:#ffffff00;stroke-width:0;fill:#757575"><path d="M 844.501 70 L 823.601 70 L 816.601 20.4 L 829.101 20.4 L 833.501 61.5 L 835.301 61.5 L 841.701 20.4 L 861.901 20.4 L 868.301 61.5 L 870.101 61.5 L 874.501 20.4 L 887.001 20.4 L 880.001 70 L 859.101 70 L 852.701 28.9 L 850.901 28.9 L 844.501 70 Z M 44.001 70 L 31.401 70 L 31.401 20.4 L 43.801 20.4 L 43.801 25.8 L 45.601 25.8 A 9.844 9.844 0 0 1 47.601 23.193 Q 48.588 22.259 49.901 21.45 A 11.381 11.381 0 0 1 53.009 20.153 Q 54.428 19.782 56.103 19.66 A 23.385 23.385 0 0 1 57.801 19.6 A 22.355 22.355 0 0 1 61.196 19.842 Q 62.98 20.117 64.445 20.703 A 11.002 11.002 0 0 1 66.301 21.65 Q 69.501 23.7 71.201 27 L 73.001 27 Q 74.701 23.8 77.801 21.7 A 10.704 10.704 0 0 1 80.748 20.34 Q 83.216 19.6 86.601 19.6 A 18.789 18.789 0 0 1 92.018 20.362 A 16.772 16.772 0 0 1 94.951 21.55 A 14.4 14.4 0 0 1 100.515 26.727 A 17.49 17.49 0 0 1 100.951 27.45 A 13.947 13.947 0 0 1 100.986 27.512 Q 102.956 31.013 103.174 36.112 A 30.26 30.26 0 0 1 103.201 37.4 L 103.201 70 L 90.601 70 L 90.601 38.3 Q 90.601 34.2 88.501 32.15 Q 86.535 30.231 83.081 30.108 A 13.497 13.497 0 0 0 82.601 30.1 A 10.749 10.749 0 0 0 79.818 30.44 A 7.514 7.514 0 0 0 75.951 32.85 A 8.996 8.996 0 0 0 74.23 36.05 Q 73.817 37.369 73.675 38.96 A 19.579 19.579 0 0 0 73.601 40.7 L 73.601 70 L 61.001 70 L 61.001 38.3 Q 61.001 34.2 58.901 32.15 Q 56.935 30.231 53.481 30.108 A 13.497 13.497 0 0 0 53.001 30.1 A 10.749 10.749 0 0 0 50.218 30.44 A 7.514 7.514 0 0 0 46.351 32.85 A 8.996 8.996 0 0 0 44.63 36.05 Q 44.217 37.369 44.075 38.96 A 19.579 19.579 0 0 0 44.001 40.7 L 44.001 70 Z M 420.501 70 L 407.901 70 L 407.901 0 L 420.501 0 L 420.501 26.5 L 422.301 26.5 A 9.428 9.428 0 0 1 423.248 25 Q 423.766 24.323 424.444 23.645 A 16.886 16.886 0 0 1 424.801 23.3 A 10.792 10.792 0 0 1 426.717 21.879 Q 427.663 21.32 428.81 20.858 A 19.355 19.355 0 0 1 429.351 20.65 A 15.127 15.127 0 0 1 431.868 19.98 Q 433.155 19.745 434.656 19.656 A 32.602 32.602 0 0 1 436.601 19.6 Q 442.401 19.6 446.751 22.25 Q 451.101 24.9 453.501 29.55 Q 455.901 34.2 455.901 40.4 L 455.901 70 L 443.301 70 L 443.301 41.4 A 18.168 18.168 0 0 0 443.045 38.247 Q 442.463 34.947 440.551 33 Q 437.976 30.379 433.342 30.211 A 17.78 17.78 0 0 0 432.701 30.2 Q 426.901 30.2 423.701 34.05 Q 421.002 37.296 420.579 42.71 A 26.827 26.827 0 0 0 420.501 44.8 L 420.501 70 Z M 669.801 70 L 657.201 70 L 657.201 0 L 669.801 0 L 669.801 26.5 L 671.601 26.5 A 9.428 9.428 0 0 1 672.548 25 Q 673.066 24.323 673.744 23.645 A 16.886 16.886 0 0 1 674.101 23.3 A 10.792 10.792 0 0 1 676.017 21.879 Q 676.963 21.32 678.11 20.858 A 19.355 19.355 0 0 1 678.651 20.65 A 15.127 15.127 0 0 1 681.168 19.98 Q 682.455 19.745 683.956 19.656 A 32.602 32.602 0 0 1 685.901 19.6 Q 691.701 19.6 696.051 22.25 Q 700.401 24.9 702.801 29.55 Q 705.201 34.2 705.201 40.4 L 705.201 70 L 692.601 70 L 692.601 41.4 A 18.168 18.168 0 0 0 692.345 38.247 Q 691.763 34.947 689.851 33 Q 687.276 30.379 682.642 30.211 A 17.78 17.78 0 0 0 682.001 30.2 Q 676.201 30.2 673.001 34.05 Q 670.302 37.296 669.879 42.71 A 26.827 26.827 0 0 0 669.801 44.8 L 669.801 70 Z M 1167.801 55.2 L 1179.401 52.2 A 17.125 17.125 0 0 0 1180.026 54.522 Q 1180.443 55.707 1181.013 56.652 A 8.68 8.68 0 0 0 1181.751 57.7 Q 1183.401 59.7 1185.851 60.55 A 15.462 15.462 0 0 0 1189.605 61.333 A 18.577 18.577 0 0 0 1191.201 61.4 Q 1195.601 61.4 1197.701 59.85 A 5.844 5.844 0 0 0 1198.918 58.667 A 4.328 4.328 0 0 0 1199.801 56 A 4.186 4.186 0 0 0 1199.438 54.232 Q 1199.025 53.334 1198.143 52.683 A 5.354 5.354 0 0 0 1197.801 52.45 Q 1196.114 51.396 1192.719 50.662 A 40.591 40.591 0 0 0 1191.401 50.4 L 1188.601 49.9 A 54.45 54.45 0 0 1 1182.525 48.38 A 44.724 44.724 0 0 1 1179.101 47.15 A 19.39 19.39 0 0 1 1175.118 44.986 A 15.691 15.691 0 0 1 1172.201 42.3 Q 1169.601 39.2 1169.601 34.3 A 16.156 16.156 0 0 1 1170.298 29.427 A 12.529 12.529 0 0 1 1175.001 22.95 A 19.357 19.357 0 0 1 1181.641 19.882 Q 1184.351 19.179 1187.542 19.036 A 37.097 37.097 0 0 1 1189.201 19 Q 1196.947 19 1202.255 22.223 A 19.061 19.061 0 0 1 1203.001 22.7 A 18.203 18.203 0 0 1 1207.772 27.28 A 16.654 16.654 0 0 1 1210.201 32.4 L 1198.501 36 A 11.661 11.661 0 0 0 1197.8 33.749 Q 1197.23 32.438 1196.36 31.525 A 6.246 6.246 0 0 0 1195.251 30.6 A 9.544 9.544 0 0 0 1191.936 29.264 A 13.456 13.456 0 0 0 1189.201 29 A 16.649 16.649 0 0 0 1187.165 29.116 Q 1186.16 29.24 1185.336 29.497 A 6.457 6.457 0 0 0 1183.701 30.25 A 4.463 4.463 0 0 0 1182.524 31.346 Q 1181.801 32.342 1181.801 33.7 A 4.516 4.516 0 0 0 1182.048 35.233 Q 1182.473 36.42 1183.632 37.149 A 4.962 4.962 0 0 0 1183.801 37.25 Q 1185.254 38.086 1187.446 38.631 A 26.005 26.005 0 0 0 1189.201 39 L 1192.001 39.5 A 68.46 68.46 0 0 1 1197.968 40.831 A 53.692 53.692 0 0 1 1202.151 42.15 A 20.057 20.057 0 0 1 1205.884 43.933 A 15.038 15.038 0 0 1 1209.351 46.85 A 10.333 10.333 0 0 1 1211.529 51.095 Q 1211.934 52.652 1211.991 54.491 A 19.673 19.673 0 0 1 1212.001 55.1 A 17.185 17.185 0 0 1 1211.239 60.349 A 13.482 13.482 0 0 1 1206.351 67.15 A 19.807 19.807 0 0 1 1199.619 70.37 Q 1195.876 71.4 1191.201 71.4 Q 1181.501 71.4 1175.301 67.2 A 17.167 17.167 0 0 1 1167.898 55.744 A 22.639 22.639 0 0 1 1167.801 55.2 Z M 1220.201 55.2 L 1231.801 52.2 A 17.125 17.125 0 0 0 1232.426 54.522 Q 1232.843 55.707 1233.413 56.652 A 8.68 8.68 0 0 0 1234.151 57.7 Q 1235.801 59.7 1238.251 60.55 A 15.462 15.462 0 0 0 1242.005 61.333 A 18.577 18.577 0 0 0 1243.601 61.4 Q 1248.001 61.4 1250.101 59.85 A 5.844 5.844 0 0 0 1251.318 58.667 A 4.328 4.328 0 0 0 1252.201 56 A 4.186 4.186 0 0 0 1251.838 54.232 Q 1251.425 53.334 1250.543 52.683 A 5.354 5.354 0 0 0 1250.201 52.45 Q 1248.514 51.396 1245.119 50.662 A 40.591 40.591 0 0 0 1243.801 50.4 L 1241.001 49.9 A 54.45 54.45 0 0 1 1234.925 48.38 A 44.724 44.724 0 0 1 1231.501 47.15 A 19.39 19.39 0 0 1 1227.518 44.986 A 15.691 15.691 0 0 1 1224.601 42.3 Q 1222.001 39.2 1222.001 34.3 A 16.156 16.156 0 0 1 1222.698 29.427 A 12.529 12.529 0 0 1 1227.401 22.95 A 19.357 19.357 0 0 1 1234.041 19.882 Q 1236.751 19.179 1239.942 19.036 A 37.097 37.097 0 0 1 1241.601 19 Q 1249.347 19 1254.655 22.223 A 19.061 19.061 0 0 1 1255.401 22.7 A 18.203 18.203 0 0 1 1260.172 27.28 A 16.654 16.654 0 0 1 1262.601 32.4 L 1250.901 36 A 11.661 11.661 0 0 0 1250.2 33.749 Q 1249.63 32.438 1248.76 31.525 A 6.246 6.246 0 0 0 1247.651 30.6 A 9.544 9.544 0 0 0 1244.336 29.264 A 13.456 13.456 0 0 0 1241.601 29 A 16.649 16.649 0 0 0 1239.565 29.116 Q 1238.56 29.24 1237.736 29.497 A 6.457 6.457 0 0 0 1236.101 30.25 A 4.463 4.463 0 0 0 1234.924 31.346 Q 1234.201 32.342 1234.201 33.7 A 4.516 4.516 0 0 0 1234.448 35.233 Q 1234.873 36.42 1236.032 37.149 A 4.962 4.962 0 0 0 1236.201 37.25 Q 1237.654 38.086 1239.846 38.631 A 26.005 26.005 0 0 0 1241.601 39 L 1244.401 39.5 A 68.46 68.46 0 0 1 1250.368 40.831 A 53.692 53.692 0 0 1 1254.551 42.15 A 20.057 20.057 0 0 1 1258.284 43.933 A 15.038 15.038 0 0 1 1261.751 46.85 A 10.333 10.333 0 0 1 1263.929 51.095 Q 1264.334 52.652 1264.391 54.491 A 19.673 19.673 0 0 1 1264.401 55.1 A 17.185 17.185 0 0 1 1263.639 60.349 A 13.482 13.482 0 0 1 1258.751 67.15 A 19.807 19.807 0 0 1 1252.019 70.37 Q 1248.276 71.4 1243.601 71.4 Q 1233.901 71.4 1227.701 67.2 A 17.167 17.167 0 0 1 1220.298 55.744 A 22.639 22.639 0 0 1 1220.201 55.2 Z M 187.101 70 L 174.501 70 L 174.501 20.4 L 186.901 20.4 L 186.901 26.9 L 188.701 26.9 A 9.774 9.774 0 0 1 190.152 24.673 Q 190.897 23.797 191.902 22.953 A 20.423 20.423 0 0 1 193.201 21.95 A 10.629 10.629 0 0 1 196.082 20.541 Q 198.779 19.659 202.672 19.604 A 37.06 37.06 0 0 1 203.201 19.6 Q 209.001 19.6 213.351 22.25 Q 217.701 24.9 220.101 29.55 Q 222.501 34.2 222.501 40.4 L 222.501 70 L 209.901 70 L 209.901 41.4 A 18.168 18.168 0 0 0 209.645 38.247 Q 209.063 34.947 207.151 33 Q 204.576 30.379 199.942 30.211 A 17.78 17.78 0 0 0 199.301 30.2 Q 193.501 30.2 190.301 34.05 Q 187.602 37.296 187.179 42.71 A 26.827 26.827 0 0 0 187.101 44.8 L 187.101 70 Z M 1063.901 70 L 1051.301 70 L 1051.301 20.4 L 1063.701 20.4 L 1063.701 26.9 L 1065.501 26.9 A 9.774 9.774 0 0 1 1066.952 24.673 Q 1067.697 23.797 1068.702 22.953 A 20.423 20.423 0 0 1 1070.001 21.95 A 10.629 10.629 0 0 1 1072.882 20.541 Q 1075.579 19.659 1079.472 19.604 A 37.06 37.06 0 0 1 1080.001 19.6 Q 1085.801 19.6 1090.151 22.25 Q 1094.501 24.9 1096.901 29.55 Q 1099.301 34.2 1099.301 40.4 L 1099.301 70 L 1086.701 70 L 1086.701 41.4 A 18.168 18.168 0 0 0 1086.445 38.247 Q 1085.863 34.947 1083.951 33 Q 1081.376 30.379 1076.742 30.211 A 17.78 17.78 0 0 0 1076.101 30.2 Q 1070.301 30.2 1067.101 34.05 Q 1064.402 37.296 1063.979 42.71 A 26.827 26.827 0 0 0 1063.901 44.8 L 1063.901 70 Z M 296.301 40 L 309.901 40 L 309.901 37.2 A 9.122 9.122 0 0 0 309.509 34.469 A 7.431 7.431 0 0 0 307.701 31.45 Q 306.034 29.746 302.877 29.333 A 16.794 16.794 0 0 0 300.701 29.2 A 16.355 16.355 0 0 0 298.121 29.389 Q 296.766 29.606 295.688 30.072 A 6.86 6.86 0 0 0 293.701 31.35 A 9.906 9.906 0 0 0 290.958 35.868 A 12.495 12.495 0 0 0 290.701 36.9 L 279.101 33 Q 280.301 29.2 282.951 26.05 Q 285.601 22.9 290.051 20.95 Q 293.91 19.259 299.235 19.034 A 39.537 39.537 0 0 1 300.901 19 A 31.782 31.782 0 0 1 307.154 19.579 Q 312.66 20.684 316.401 23.9 Q 322.101 28.8 322.101 38.1 L 322.101 56.6 Q 322.101 59.152 324.127 59.533 A 4.192 4.192 0 0 0 324.901 59.6 L 328.901 59.6 L 328.901 70 L 320.501 70 A 12.506 12.506 0 0 1 317.808 69.725 A 8.73 8.73 0 0 1 314.401 68.2 Q 312.081 66.461 312.003 63.601 A 7.351 7.351 0 0 1 312.001 63.4 L 312.001 63.3 L 310.101 63.3 A 6.368 6.368 0 0 1 309.775 64.079 Q 309.285 65.079 308.301 66.45 Q 307.171 68.023 305.001 69.303 A 18.089 18.089 0 0 1 303.901 69.9 A 12.218 12.218 0 0 1 301.341 70.814 Q 300.071 71.125 298.559 71.271 A 29.834 29.834 0 0 1 295.701 71.4 A 26.041 26.041 0 0 1 290.38 70.878 A 20.928 20.928 0 0 1 286.201 69.55 A 15.975 15.975 0 0 1 281.347 66.297 A 14.986 14.986 0 0 1 279.551 64.15 A 13.64 13.64 0 0 1 277.364 58.68 A 18.426 18.426 0 0 1 277.101 55.5 Q 277.101 50.4 279.551 46.95 A 14.446 14.446 0 0 1 284.786 42.466 A 18.027 18.027 0 0 1 286.351 41.75 A 23.776 23.776 0 0 1 291.957 40.289 A 31.413 31.413 0 0 1 296.301 40 Z M 543.201 40 L 556.801 40 L 556.801 37.2 A 9.122 9.122 0 0 0 556.409 34.469 A 7.431 7.431 0 0 0 554.601 31.45 Q 552.934 29.746 549.777 29.333 A 16.794 16.794 0 0 0 547.601 29.2 A 16.355 16.355 0 0 0 545.021 29.389 Q 543.666 29.606 542.588 30.072 A 6.86 6.86 0 0 0 540.601 31.35 A 9.906 9.906 0 0 0 537.858 35.868 A 12.495 12.495 0 0 0 537.601 36.9 L 526.001 33 Q 527.201 29.2 529.851 26.05 Q 532.501 22.9 536.951 20.95 Q 540.81 19.259 546.135 19.034 A 39.537 39.537 0 0 1 547.801 19 A 31.782 31.782 0 0 1 554.054 19.579 Q 559.56 20.684 563.301 23.9 Q 569.001 28.8 569.001 38.1 L 569.001 56.6 Q 569.001 59.152 571.027 59.533 A 4.192 4.192 0 0 0 571.801 59.6 L 575.801 59.6 L 575.801 70 L 567.401 70 A 12.506 12.506 0 0 1 564.708 69.725 A 8.73 8.73 0 0 1 561.301 68.2 Q 558.981 66.461 558.903 63.601 A 7.351 7.351 0 0 1 558.901 63.4 L 558.901 63.3 L 557.001 63.3 A 6.368 6.368 0 0 1 556.675 64.079 Q 556.185 65.079 555.201 66.45 Q 554.071 68.023 551.901 69.303 A 18.089 18.089 0 0 1 550.801 69.9 A 12.218 12.218 0 0 1 548.241 70.814 Q 546.971 71.125 545.459 71.271 A 29.834 29.834 0 0 1 542.601 71.4 A 26.041 26.041 0 0 1 537.28 70.878 A 20.928 20.928 0 0 1 533.101 69.55 A 15.975 15.975 0 0 1 528.247 66.297 A 14.986 14.986 0 0 1 526.451 64.15 A 13.64 13.64 0 0 1 524.264 58.68 A 18.426 18.426 0 0 1 524.001 55.5 Q 524.001 50.4 526.451 46.95 A 14.446 14.446 0 0 1 531.686 42.466 A 18.027 18.027 0 0 1 533.251 41.75 A 23.776 23.776 0 0 1 538.857 40.289 A 31.413 31.413 0 0 1 543.201 40 Z M 778.001 40 L 791.601 40 L 791.601 37.2 A 9.122 9.122 0 0 0 791.209 34.469 A 7.431 7.431 0 0 0 789.401 31.45 Q 787.734 29.746 784.577 29.333 A 16.794 16.794 0 0 0 782.401 29.2 A 16.355 16.355 0 0 0 779.821 29.389 Q 778.466 29.606 777.388 30.072 A 6.86 6.86 0 0 0 775.401 31.35 A 9.906 9.906 0 0 0 772.658 35.868 A 12.495 12.495 0 0 0 772.401 36.9 L 760.801 33 Q 762.001 29.2 764.651 26.05 Q 767.301 22.9 771.751 20.95 Q 775.61 19.259 780.935 19.034 A 39.537 39.537 0 0 1 782.601 19 A 31.782 31.782 0 0 1 788.854 19.579 Q 794.36 20.684 798.101 23.9 Q 803.801 28.8 803.801 38.1 L 803.801 56.6 Q 803.801 59.152 805.827 59.533 A 4.192 4.192 0 0 0 806.601 59.6 L 810.601 59.6 L 810.601 70 L 802.201 70 A 12.506 12.506 0 0 1 799.508 69.725 A 8.73 8.73 0 0 1 796.101 68.2 Q 793.781 66.461 793.703 63.601 A 7.351 7.351 0 0 1 793.701 63.4 L 793.701 63.3 L 791.801 63.3 A 6.368 6.368 0 0 1 791.475 64.079 Q 790.985 65.079 790.001 66.45 Q 788.871 68.023 786.701 69.303 A 18.089 18.089 0 0 1 785.601 69.9 A 12.218 12.218 0 0 1 783.041 70.814 Q 781.771 71.125 780.259 71.271 A 29.834 29.834 0 0 1 777.401 71.4 A 26.041 26.041 0 0 1 772.08 70.878 A 20.928 20.928 0 0 1 767.901 69.55 A 15.975 15.975 0 0 1 763.047 66.297 A 14.986 14.986 0 0 1 761.251 64.15 A 13.64 13.64 0 0 1 759.064 58.68 A 18.426 18.426 0 0 1 758.801 55.5 Q 758.801 50.4 761.251 46.95 A 14.446 14.446 0 0 1 766.486 42.466 A 18.027 18.027 0 0 1 768.051 41.75 A 23.776 23.776 0 0 1 773.657 40.289 A 31.413 31.413 0 0 1 778.001 40 Z M 914.001 40 L 927.601 40 L 927.601 37.2 A 9.122 9.122 0 0 0 927.209 34.469 A 7.431 7.431 0 0 0 925.401 31.45 Q 923.734 29.746 920.577 29.333 A 16.794 16.794 0 0 0 918.401 29.2 A 16.355 16.355 0 0 0 915.821 29.389 Q 914.466 29.606 913.388 30.072 A 6.86 6.86 0 0 0 911.401 31.35 A 9.906 9.906 0 0 0 908.658 35.868 A 12.495 12.495 0 0 0 908.401 36.9 L 896.801 33 Q 898.001 29.2 900.651 26.05 Q 903.301 22.9 907.751 20.95 Q 911.61 19.259 916.935 19.034 A 39.537 39.537 0 0 1 918.601 19 A 31.782 31.782 0 0 1 924.854 19.579 Q 930.36 20.684 934.101 23.9 Q 939.801 28.8 939.801 38.1 L 939.801 56.6 Q 939.801 59.152 941.827 59.533 A 4.192 4.192 0 0 0 942.601 59.6 L 946.601 59.6 L 946.601 70 L 938.201 70 A 12.506 12.506 0 0 1 935.508 69.725 A 8.73 8.73 0 0 1 932.101 68.2 Q 929.781 66.461 929.703 63.601 A 7.351 7.351 0 0 1 929.701 63.4 L 929.701 63.3 L 927.801 63.3 A 6.368 6.368 0 0 1 927.475 64.079 Q 926.985 65.079 926.001 66.45 Q 924.871 68.023 922.701 69.303 A 18.089 18.089 0 0 1 921.601 69.9 A 12.218 12.218 0 0 1 919.041 70.814 Q 917.771 71.125 916.259 71.271 A 29.834 29.834 0 0 1 913.401 71.4 A 26.041 26.041 0 0 1 908.08 70.878 A 20.928 20.928 0 0 1 903.901 69.55 A 15.975 15.975 0 0 1 899.047 66.297 A 14.986 14.986 0 0 1 897.251 64.15 A 13.64 13.64 0 0 1 895.064 58.68 A 18.426 18.426 0 0 1 894.801 55.5 Q 894.801 50.4 897.251 46.95 A 14.446 14.446 0 0 1 902.486 42.466 A 18.027 18.027 0 0 1 904.051 41.75 A 23.776 23.776 0 0 1 909.657 40.289 A 31.413 31.413 0 0 1 914.001 40 Z M 114.401 45.8 L 114.401 44.6 A 33.07 33.07 0 0 1 115.059 37.845 A 24.967 24.967 0 0 1 117.501 31.05 Q 120.601 25.3 126.201 22.15 A 24.421 24.421 0 0 1 134.965 19.278 A 31.365 31.365 0 0 1 139.201 19 A 27.731 27.731 0 0 1 145.627 19.714 A 21.906 21.906 0 0 1 151.901 22.25 Q 157.301 25.5 160.301 31.25 Q 163.301 37 163.301 44.6 L 163.301 48.9 L 127.201 48.9 A 12.275 12.275 0 0 0 128.128 53.247 A 10.992 10.992 0 0 0 131.001 57.2 Q 134.601 60.4 139.801 60.4 Q 143.038 60.4 145.231 59.542 A 7.485 7.485 0 0 0 147.601 58.1 A 17.06 17.06 0 0 0 150.352 54.886 A 14.94 14.94 0 0 0 151.401 53 L 161.701 58.4 A 24.239 24.239 0 0 1 160.297 60.674 Q 159.183 62.287 157.651 64.05 Q 155.001 67.1 150.601 69.25 Q 146.993 71.013 141.773 71.33 A 39.09 39.09 0 0 1 139.401 71.4 Q 132.001 71.4 126.351 68.25 Q 120.701 65.1 117.551 59.35 A 25.174 25.174 0 0 1 114.843 51.362 A 33.552 33.552 0 0 1 114.401 45.8 Z M 467.101 45.8 L 467.101 44.6 A 33.07 33.07 0 0 1 467.759 37.845 A 24.967 24.967 0 0 1 470.201 31.05 Q 473.301 25.3 478.901 22.15 A 24.421 24.421 0 0 1 487.665 19.278 A 31.365 31.365 0 0 1 491.901 19 A 27.731 27.731 0 0 1 498.327 19.714 A 21.906 21.906 0 0 1 504.601 22.25 Q 510.001 25.5 513.001 31.25 Q 516.001 37 516.001 44.6 L 516.001 48.9 L 479.901 48.9 A 12.275 12.275 0 0 0 480.828 53.247 A 10.992 10.992 0 0 0 483.701 57.2 Q 487.301 60.4 492.501 60.4 Q 495.738 60.4 497.931 59.542 A 7.485 7.485 0 0 0 500.301 58.1 A 17.06 17.06 0 0 0 503.052 54.886 A 14.94 14.94 0 0 0 504.101 53 L 514.401 58.4 A 24.239 24.239 0 0 1 512.997 60.674 Q 511.883 62.287 510.351 64.05 Q 507.701 67.1 503.301 69.25 Q 499.693 71.013 494.473 71.33 A 39.09 39.09 0 0 1 492.101 71.4 Q 484.701 71.4 479.051 68.25 Q 473.401 65.1 470.251 59.35 A 25.174 25.174 0 0 1 467.543 51.362 A 33.552 33.552 0 0 1 467.101 45.8 Z M 991.201 45.8 L 991.201 44.6 A 33.07 33.07 0 0 1 991.859 37.845 A 24.967 24.967 0 0 1 994.301 31.05 Q 997.401 25.3 1003.001 22.15 A 24.421 24.421 0 0 1 1011.765 19.278 A 31.365 31.365 0 0 1 1016.001 19 A 27.731 27.731 0 0 1 1022.427 19.714 A 21.906 21.906 0 0 1 1028.701 22.25 Q 1034.101 25.5 1037.101 31.25 Q 1040.101 37 1040.101 44.6 L 1040.101 48.9 L 1004.001 48.9 A 12.275 12.275 0 0 0 1004.928 53.247 A 10.992 10.992 0 0 0 1007.801 57.2 Q 1011.401 60.4 1016.601 60.4 Q 1019.838 60.4 1022.031 59.542 A 7.485 7.485 0 0 0 1024.401 58.1 A 17.06 17.06 0 0 0 1027.152 54.886 A 14.94 14.94 0 0 0 1028.201 53 L 1038.501 58.4 A 24.239 24.239 0 0 1 1037.097 60.674 Q 1035.983 62.287 1034.451 64.05 Q 1031.801 67.1 1027.401 69.25 Q 1023.793 71.013 1018.573 71.33 A 39.09 39.09 0 0 1 1016.201 71.4 Q 1008.801 71.4 1003.151 68.25 Q 997.501 65.1 994.351 59.35 A 25.174 25.174 0 0 1 991.643 51.362 A 33.552 33.552 0 0 1 991.201 45.8 Z M 1110.501 45.8 L 1110.501 44.6 A 33.07 33.07 0 0 1 1111.159 37.845 A 24.967 24.967 0 0 1 1113.601 31.05 Q 1116.701 25.3 1122.301 22.15 A 24.421 24.421 0 0 1 1131.065 19.278 A 31.365 31.365 0 0 1 1135.301 19 A 27.731 27.731 0 0 1 1141.727 19.714 A 21.906 21.906 0 0 1 1148.001 22.25 Q 1153.401 25.5 1156.401 31.25 Q 1159.401 37 1159.401 44.6 L 1159.401 48.9 L 1123.301 48.9 A 12.275 12.275 0 0 0 1124.228 53.247 A 10.992 10.992 0 0 0 1127.101 57.2 Q 1130.701 60.4 1135.901 60.4 Q 1139.138 60.4 1141.331 59.542 A 7.485 7.485 0 0 0 1143.701 58.1 A 17.06 17.06 0 0 0 1146.452 54.886 A 14.94 14.94 0 0 0 1147.501 53 L 1157.801 58.4 A 24.239 24.239 0 0 1 1156.397 60.674 Q 1155.283 62.287 1153.751 64.05 Q 1151.101 67.1 1146.701 69.25 Q 1143.093 71.013 1137.873 71.33 A 39.09 39.09 0 0 1 1135.501 71.4 Q 1128.101 71.4 1122.451 68.25 Q 1116.801 65.1 1113.651 59.35 A 25.174 25.174 0 0 1 1110.943 51.362 A 33.552 33.552 0 0 1 1110.501 45.8 Z M 267.701 70 L 253.701 70 A 12.803 12.803 0 0 1 250.033 69.499 A 10 10 0 0 1 245.751 66.95 A 10.205 10.205 0 0 1 242.922 61.4 A 14.609 14.609 0 0 1 242.701 58.8 L 242.701 30.8 L 230.301 30.8 L 230.301 20.4 L 242.701 20.4 L 242.701 5 L 255.301 5 L 255.301 20.4 L 268.901 20.4 L 268.901 30.8 L 255.301 30.8 L 255.301 56.6 Q 255.301 59.152 257.327 59.533 A 4.192 4.192 0 0 0 258.101 59.6 L 267.701 59.6 L 267.701 70 Z M 644.601 70 L 630.601 70 A 12.803 12.803 0 0 1 626.933 69.499 A 10 10 0 0 1 622.651 66.95 A 10.205 10.205 0 0 1 619.822 61.4 A 14.609 14.609 0 0 1 619.601 58.8 L 619.601 30.8 L 607.201 30.8 L 607.201 20.4 L 619.601 20.4 L 619.601 5 L 632.201 5 L 632.201 20.4 L 645.801 20.4 L 645.801 30.8 L 632.201 30.8 L 632.201 56.6 Q 632.201 59.152 634.227 59.533 A 4.192 4.192 0 0 0 635.001 59.6 L 644.601 59.6 L 644.601 70 Z M 350.701 70 L 338.101 70 L 338.101 0 L 350.701 0 L 350.701 70 Z M 597.601 70 L 585.001 70 L 585.001 0 L 597.601 0 L 597.601 70 Z M 968.401 70 L 955.801 70 L 955.801 20.4 L 968.201 20.4 L 968.201 26 L 970.001 26 A 8.834 8.834 0 0 1 971.35 23.539 A 7.507 7.507 0 0 1 973.651 21.6 A 11.214 11.214 0 0 1 977.363 20.365 A 14.611 14.611 0 0 1 979.601 20.2 L 985.601 20.2 L 985.601 31.4 L 979.401 31.4 A 14.832 14.832 0 0 0 975.845 31.805 A 10.81 10.81 0 0 0 971.501 33.95 A 8.047 8.047 0 0 0 968.893 38.013 Q 968.494 39.371 968.418 41.016 A 17.092 17.092 0 0 0 968.401 41.8 L 968.401 70 Z M 394.101 50.2 L 364.501 50.2 L 364.501 38.8 L 394.101 38.8 L 394.101 50.2 Z M 748.201 50.2 L 718.601 50.2 L 718.601 38.8 L 748.201 38.8 L 748.201 50.2 Z M 9.601 71.4 Q 5.501 71.4 2.751 68.75 A 8.871 8.871 0 0 1 0.038 62.863 A 12.046 12.046 0 0 1 0.001 61.9 A 10.457 10.457 0 0 1 0.49 58.632 A 8.645 8.645 0 0 1 2.751 55.05 A 9.379 9.379 0 0 1 9.093 52.41 A 12.308 12.308 0 0 1 9.601 52.4 A 9.952 9.952 0 0 1 13.171 53.022 A 9.022 9.022 0 0 1 16.301 55.05 A 8.904 8.904 0 0 1 18.947 60.749 A 12.12 12.12 0 0 1 19.001 61.9 A 10.644 10.644 0 0 1 18.524 65.154 A 8.668 8.668 0 0 1 16.301 68.75 A 9.141 9.141 0 0 1 9.849 71.397 A 11.894 11.894 0 0 1 9.601 71.4 Z M 127.301 39.5 L 150.501 39.5 A 10.967 10.967 0 0 0 149.569 35.897 A 9.552 9.552 0 0 0 147.051 32.6 A 10.595 10.595 0 0 0 142.317 30.321 A 15.285 15.285 0 0 0 139.101 30 A 16.219 16.219 0 0 0 135.774 30.321 Q 133.653 30.766 132.028 31.825 A 9.447 9.447 0 0 0 131.001 32.6 A 10.913 10.913 0 0 0 127.519 38.42 A 14.111 14.111 0 0 0 127.301 39.5 Z M 480.001 39.5 L 503.201 39.5 A 10.967 10.967 0 0 0 502.269 35.897 A 9.552 9.552 0 0 0 499.751 32.6 A 10.595 10.595 0 0 0 495.017 30.321 A 15.285 15.285 0 0 0 491.801 30 A 16.219 16.219 0 0 0 488.474 30.321 Q 486.353 30.766 484.728 31.825 A 9.447 9.447 0 0 0 483.701 32.6 A 10.913 10.913 0 0 0 480.219 38.42 A 14.111 14.111 0 0 0 480.001 39.5 Z M 1004.101 39.5 L 1027.301 39.5 A 10.967 10.967 0 0 0 1026.369 35.897 A 9.552 9.552 0 0 0 1023.851 32.6 A 10.595 10.595 0 0 0 1019.117 30.321 A 15.285 15.285 0 0 0 1015.901 30 A 16.219 16.219 0 0 0 1012.574 30.321 Q 1010.453 30.766 1008.828 31.825 A 9.447 9.447 0 0 0 1007.801 32.6 A 10.913 10.913 0 0 0 1004.319 38.42 A 14.111 14.111 0 0 0 1004.101 39.5 Z M 1123.401 39.5 L 1146.601 39.5 A 10.967 10.967 0 0 0 1145.669 35.897 A 9.552 9.552 0 0 0 1143.151 32.6 A 10.595 10.595 0 0 0 1138.417 30.321 A 15.285 15.285 0 0 0 1135.201 30 A 16.219 16.219 0 0 0 1131.874 30.321 Q 1129.753 30.766 1128.128 31.825 A 9.447 9.447 0 0 0 1127.101 32.6 A 10.913 10.913 0 0 0 1123.619 38.42 A 14.111 14.111 0 0 0 1123.401 39.5 Z M 309.901 50.4 L 309.901 49.4 L 297.201 49.4 A 13.243 13.243 0 0 0 295.065 49.561 Q 293.928 49.748 293.006 50.148 A 6.432 6.432 0 0 0 291.701 50.9 Q 289.701 52.4 289.701 55.1 Q 289.701 57.8 291.801 59.5 Q 293.421 60.812 296.172 61.111 A 15.985 15.985 0 0 0 297.901 61.2 A 15.586 15.586 0 0 0 301.744 60.75 A 11.401 11.401 0 0 0 306.551 58.25 A 9.711 9.711 0 0 0 309.86 51.449 A 13.452 13.452 0 0 0 309.901 50.4 Z M 556.801 50.4 L 556.801 49.4 L 544.101 49.4 A 13.243 13.243 0 0 0 541.965 49.561 Q 540.828 49.748 539.906 50.148 A 6.432 6.432 0 0 0 538.601 50.9 Q 536.601 52.4 536.601 55.1 Q 536.601 57.8 538.701 59.5 Q 540.321 60.812 543.072 61.111 A 15.985 15.985 0 0 0 544.801 61.2 A 15.586 15.586 0 0 0 548.644 60.75 A 11.401 11.401 0 0 0 553.451 58.25 A 9.711 9.711 0 0 0 556.76 51.449 A 13.452 13.452 0 0 0 556.801 50.4 Z M 791.601 50.4 L 791.601 49.4 L 778.901 49.4 A 13.243 13.243 0 0 0 776.765 49.561 Q 775.628 49.748 774.706 50.148 A 6.432 6.432 0 0 0 773.401 50.9 Q 771.401 52.4 771.401 55.1 Q 771.401 57.8 773.501 59.5 Q 775.121 60.812 777.872 61.111 A 15.985 15.985 0 0 0 779.601 61.2 A 15.586 15.586 0 0 0 783.444 60.75 A 11.401 11.401 0 0 0 788.251 58.25 A 9.711 9.711 0 0 0 791.56 51.449 A 13.452 13.452 0 0 0 791.601 50.4 Z M 927.601 50.4 L 927.601 49.4 L 914.901 49.4 A 13.243 13.243 0 0 0 912.765 49.561 Q 911.628 49.748 910.706 50.148 A 6.432 6.432 0 0 0 909.401 50.9 Q 907.401 52.4 907.401 55.1 Q 907.401 57.8 909.501 59.5 Q 911.121 60.812 913.872 61.111 A 15.985 15.985 0 0 0 915.601 61.2 A 15.586 15.586 0 0 0 919.444 60.75 A 11.401 11.401 0 0 0 924.251 58.25 A 9.711 9.711 0 0 0 927.56 51.449 A 13.452 13.452 0 0 0 927.601 50.4 Z"/></g></svg>