<?xml version="1.0" encoding="UTF-8" standalone="no"?>
<!-- Created with Inkscape (http://www.inkscape.org/) -->

<svg
   version="1.1"
   id="svg2"
   width="666.66669"
   height="666.66669"
   viewBox="0 0 666.66669 666.66669"
   sodipodi:docname="3811642.eps"
   xmlns:inkscape="http://www.inkscape.org/namespaces/inkscape"
   xmlns:sodipodi="http://sodipodi.sourceforge.net/DTD/sodipodi-0.dtd"
   xmlns="http://www.w3.org/2000/svg"
   xmlns:svg="http://www.w3.org/2000/svg">
  <defs
     id="defs6" />
  <sodipodi:namedview
     id="namedview4"
     pagecolor="#ffffff"
     bordercolor="#000000"
     borderopacity="0.25"
     inkscape:showpageshadow="2"
     inkscape:pageopacity="0.0"
     inkscape:pagecheckerboard="0"
     inkscape:deskcolor="#d1d1d1" />
  <g
     id="g8"
     inkscape:groupmode="layer"
     inkscape:label="ink_ext_XXXXXX"
     transform="matrix(1.3333333,0,0,-1.3333333,0,666.66667)">
    <g
       id="g10"
       transform="scale(0.1)">
      <path
         d="M 5000,5000 H 0 V 0 h 5000 v 5000"
         style="fill:#fcd2b7;fill-opacity:1;fill-rule:nonzero;stroke:none"
         id="path12" />
      <path
         d="m 1464.95,948.961 c 0,0 -63.07,-846.57 11.99,-860.7188 75.06,-14.1406 188.02,768.0468 188.02,768.0468 l -200.01,92.672"
         style="fill:#1b162c;fill-opacity:1;fill-rule:nonzero;stroke:none"
         id="path14" />
      <path
         d="m 3535.05,948.961 c 0,0 63.07,-846.57 -11.99,-860.7188 C 3448,74.1016 3335.04,856.289 3335.04,856.289 l 200.01,92.672"
         style="fill:#1b162c;fill-opacity:1;fill-rule:nonzero;stroke:none"
         id="path16" />
      <path
         d="m 1714.49,2371.22 c 0,0 1346.16,201.16 1629.1,-24.19 282.94,-225.35 -21.82,-899.95 133.94,-982.48 246.81,-130.76 302.29,-444.878 224.96,-672.749 -77.33,-227.86 -2170.08,-242.18 -2372.82,-45.09 -202.75,197.078 138.18,636.259 119.68,792.269 -18.5,156 -17.94,830.7 265.14,932.24"
         style="fill:#f26039;fill-opacity:1;fill-rule:nonzero;stroke:none"
         id="path18" />
      <path
         d="m 1702.01,2011.37 c 0,0 531.18,491.86 1484.04,25.19 72.37,-35.44 481.29,-1043.04 78.18,-1192.56 -403.12,-149.52 -1483.71,-59.719 -1647.93,0 -164.23,59.711 -61.6,1083.09 85.71,1167.37"
         style="fill:#ef3c3a;fill-opacity:1;fill-rule:nonzero;stroke:none"
         id="path20" />
      <path
         d="m 1929.23,1790.48 c 0,0 65.45,50.71 83.42,36.02 17.97,-14.68 6.36,-69.42 6.36,-69.42 0,0 131.83,-314.59 119.74,-442.09 l 36.63,-58.13 -123.92,-21.35 c 0,0 -363.96,-75.48 -522.44,-97.61 0,0 -53.36,-61.78 -69.37,-59.46 -16.01,2.33 0,84.3 0,84.3 l -96.05,427.34 c 0,0 -85.38,96.14 -58.7,94.91 26.68,-1.24 112.06,-33.25 112.06,-33.25 0,0 378.87,117.39 512.27,138.74"
         style="fill:#588085;fill-opacity:1;fill-rule:nonzero;stroke:none"
         id="path22" />
      <path
         d="m 3609.86,1636.86 c 0,0 82.51,6.8 89.57,-15.3 7.05,-22.11 -32.54,-61.66 -32.54,-61.66 0,0 -61.09,-335.58 -140.77,-435.85 l -1.01,-68.7 -115.5,49.7 c 0,0 -346.22,135.24 -491.13,203.13 0,0 -78.42,-22.67 -90.57,-11.99 -12.15,10.68 45.97,70.65 45.97,70.65 l 152.58,410.57 c 0,0 -19.12,127.15 2.57,111.56 21.69,-15.59 75.79,-88.99 75.79,-88.99 0,0 381.58,-108.25 505.04,-163.12"
         style="fill:#588085;fill-opacity:1;fill-rule:nonzero;stroke:none"
         id="path24" />
      <path
         d="m 1553.81,1424.24 -2.51,9.69 c 13.94,3.61 342.21,88.09 428.88,85.76 l -0.31,-10 c -85.08,2.78 -422.66,-84.57 -426.06,-85.45"
         style="fill:#1b162c;fill-opacity:1;fill-rule:nonzero;stroke:none"
         id="path26" />
      <path
         d="m 3469.45,1438.44 c -79.46,30.51 -426.92,59.36 -430.42,59.66 l 0.82,9.96 c 14.35,-1.19 352.4,-29.26 433.2,-60.29 l -3.6,-9.33"
         style="fill:#1b162c;fill-opacity:1;fill-rule:nonzero;stroke:none"
         id="path28" />
      <path
         d="m 2554.3,2310.04 c 0,0 186.52,-9.89 184.2,57.22 -2.31,67.12 -69.13,284.67 -132.93,277.73 -63.79,-6.94 -103.95,-335.06 -51.27,-334.95"
         style="fill:#1b162c;fill-opacity:1;fill-rule:nonzero;stroke:none"
         id="path30" />
      <path
         d="m 2421.42,2517.5 c 0,0 -25.45,-182.2 -56.42,-240.5 -13.41,-25.26 -126.62,-8.43 -181.6,-60.96 -54.98,-52.54 133.27,-203.89 247.36,-268.73 87.44,-49.69 330.41,275.94 319.41,276.77 -70.82,5.31 -198.49,33.87 -195.87,85.96 2.63,52.09 3.98,99.46 3.98,99.46 0,0 -126.46,100.18 -136.86,108"
         style="fill:#f06172;fill-opacity:1;fill-rule:nonzero;stroke:none"
         id="path32" />
      <path
         d="m 2369.58,2665.15 c 0,0 -43.16,-315.56 135.58,-325.02 122.95,-6.51 183.54,199.47 153.24,297.79 -30.3,98.33 -213.7,102.01 -288.82,27.23"
         style="fill:#f06172;fill-opacity:1;fill-rule:nonzero;stroke:none"
         id="path34" />
      <path
         d="m 2375.61,2512.97 c 0,0 -5.68,54.04 -33.33,29.65 -27.66,-24.4 5.79,-94.03 31.1,-95 25.3,-0.96 12.93,40.62 2.23,65.35"
         style="fill:#f06172;fill-opacity:1;fill-rule:nonzero;stroke:none"
         id="path36" />
      <path
         d="m 2391.07,2464.91 c -0.95,-17.72 12.64,-32.85 30.36,-33.8 17.72,-0.95 32.85,12.64 33.8,30.36 0.95,17.72 -12.64,32.85 -30.36,33.8 -17.72,0.95 -32.85,-12.64 -33.8,-30.36"
         style="fill:#ec456c;fill-opacity:1;fill-rule:nonzero;stroke:none"
         id="path38" />
      <path
         d="m 2573.49,2471.04 c -0.95,-17.72 12.65,-32.86 30.36,-33.81 17.72,-0.95 32.86,12.65 33.81,30.37 0.95,17.71 -12.65,32.85 -30.36,33.8 -17.72,0.95 -32.86,-12.65 -33.81,-30.36"
         style="fill:#ec456c;fill-opacity:1;fill-rule:nonzero;stroke:none"
         id="path40" />
      <path
         d="m 2288.95,2256.62 c 0,0 40.46,-203.52 205.87,-193.1 153.82,9.69 165.33,180.74 165.33,180.74 65.81,-16.7 270.88,-17.68 329.43,-180.74 58.55,-163.06 132.3,-757.91 16.57,-811.73 -115.72,-53.83 -219.04,-58.5 -498.76,-69.31 -279.72,-10.82 -407.52,-166.01 -559.47,-131.28 -151.95,34.72 -14.19,1069.5 89.79,1135.66 103.99,66.15 251.24,69.76 251.24,69.76"
         style="fill:#f9ac5f;fill-opacity:1;fill-rule:nonzero;stroke:none"
         id="path42" />
      <path
         d="m 1766.3,1663.58 c 0,0 123.62,-108.17 212.84,-93.89 89.21,14.29 133.97,333.4 145.71,459.64 11.75,126.24 1.58,210.39 -31.91,186.04 -33.5,-24.36 -222.08,-23.32 -326.64,-551.79"
         style="fill:#f9ac5f;fill-opacity:1;fill-rule:nonzero;stroke:none"
         id="path44" />
      <path
         d="m 3071.72,1778.95 c 0,0 -103.08,-83.88 -177.47,-72.81 -74.39,11.08 -111.71,258.52 -121.5,356.41 -9.79,97.89 -6.15,125.4 -33.21,145.35 -12.63,9.32 269.23,-4.6 332.18,-428.95"
         style="fill:#f9ac5f;fill-opacity:1;fill-rule:nonzero;stroke:none"
         id="path46" />
      <path
         d="m 1984.59,1759.49 c 0,0 -39.79,-202.34 115.45,-248.6 155.24,-46.27 745.82,181.64 904.67,178.12 158.84,-3.51 103.4,-59.49 99.39,20.51 -3.46,68.88 -3.26,112.81 -126.66,123.29 -123.4,10.47 -554.29,218.35 -992.85,-73.32"
         style="fill:#f06172;fill-opacity:1;fill-rule:nonzero;stroke:none"
         id="path48" />
      <path
         d="m 2539.79,2432.19 c -0.01,0 -0.02,0 -0.03,0 -11.45,0.07 -32.21,11.68 -34.54,13.01 l 4.95,8.69 c 7.4,-4.21 21.03,-10.74 28.22,-11.6 2.5,6.65 0.3,34.66 -3.55,58.35 l 9.87,1.61 c 2.81,-17.26 8.51,-58.36 0.87,-67.31 -1.53,-1.78 -3.58,-2.75 -5.79,-2.75"
         style="fill:#1b162c;fill-opacity:1;fill-rule:nonzero;stroke:none"
         id="path50" />
      <path
         d="m 2464.38,2506.92 c -14.55,0 -27.9,6.27 -35.27,11.67 l 5.89,8.08 c 1.23,-0.89 30.24,-21.48 53.69,-0.34 l 6.7,-7.42 c -9.8,-8.84 -20.7,-11.99 -31.01,-11.99"
         style="fill:#1b162c;fill-opacity:1;fill-rule:nonzero;stroke:none"
         id="path52" />
      <path
         d="m 2597.31,2501.54 c -14.55,0 -27.9,6.27 -35.27,11.66 l 5.89,8.08 c 1.23,-0.89 30.22,-21.5 53.69,-0.33 l 6.7,-7.42 c -9.79,-8.85 -20.7,-11.99 -31.01,-11.99"
         style="fill:#1b162c;fill-opacity:1;fill-rule:nonzero;stroke:none"
         id="path54" />
      <path
         d="m 2536.05,2386.83 c -27.46,30.56 -78.62,13.43 -79.14,13.26 l -3.27,9.45 c 2.35,0.81 57.93,19.49 89.86,-16.03 l -7.45,-6.68"
         style="fill:#1b162c;fill-opacity:1;fill-rule:nonzero;stroke:none"
         id="path56" />
      <path
         d="m 2518.48,2336.85 c -34.56,0 -63.1,10.59 -64.97,11.29 l 3.54,9.36 c 0.68,-0.25 69.24,-25.61 119.89,3.44 l 4.98,-8.67 c -20.39,-11.7 -42.97,-15.42 -63.44,-15.42"
         style="fill:#1b162c;fill-opacity:1;fill-rule:nonzero;stroke:none"
         id="path58" />
      <path
         d="m 2258.38,1893.98 c 0,0 150.75,-304.38 129.87,-336.79 -20.88,-32.4 -330.69,-245.16 -549.25,-123 -218.55,122.16 -1.83,590.31 115.99,658.69 117.82,68.38 303.39,-198.9 303.39,-198.9"
         style="fill:#f9ac5f;fill-opacity:1;fill-rule:nonzero;stroke:none"
         id="path60" />
      <path
         d="m 2020.63,1849.08 -3.47,9.38 c 68.45,25.26 233.78,39.89 240.78,40.5 l 0.87,-9.97 c -1.7,-0.14 -170.99,-15.11 -238.18,-39.91"
         style="fill:#1b162c;fill-opacity:1;fill-rule:nonzero;stroke:none"
         id="path62" />
      <path
         d="m 2163.08,2355.24 c 0,0 272.48,-77.98 260.07,-26.65 -29.49,121.99 -19.1,272.43 0,279.37 19.11,6.94 134.58,-85.63 214.55,-43.97 79.97,41.66 78.62,211.72 -111.64,230.24 -190.26,18.52 -310.61,-63.61 -362.98,-438.99"
         style="fill:#1b162c;fill-opacity:1;fill-rule:nonzero;stroke:none"
         id="path64" />
      <path
         d="m 3128.12,1865.2 c 0,0 -261.65,616.23 -365.67,762.62 -104.02,146.39 -180.53,145.6 -180.53,145.6 -24.49,-16.98 39.89,-79.89 39.89,-79.89 0,0 -76.38,65.62 -79.89,41.07 -3.5,-24.54 48.24,-73.64 48.24,-73.64 0,0 -56.05,42.08 -69.68,24.55 -13.63,-17.53 108.68,-113.88 143.96,-190.19 35.28,-76.32 23.71,-511.87 62.72,-662.51 41.25,-159.27 461.02,-179.15 400.96,32.39"
         style="fill:#f06172;fill-opacity:1;fill-rule:nonzero;stroke:none"
         id="path66" />
      <path
         d="m 2134.48,1884.87 -9.87,1.62 c 4.42,26.96 13.12,139.33 13.21,140.45 l 9.97,-0.76 c -0.35,-4.64 -8.82,-113.92 -13.31,-141.31"
         style="fill:#1b162c;fill-opacity:1;fill-rule:nonzero;stroke:none"
         id="path68" />
      <path
         d="m 2754.6,1731.13 c -68.11,86.59 -68.87,519.02 -68.87,537.39 h 10 c 0,-4.47 0.75,-447.32 66.72,-531.21 l -7.85,-6.18"
         style="fill:#1b162c;fill-opacity:1;fill-rule:nonzero;stroke:none"
         id="path70" />
      <path
         d="m 2828.16,858.531 c 0,0 -570.95,499.229 -366.11,721.859 204.84,222.64 322.65,206.56 403.81,108.62 81.17,-97.94 160.13,-708.74 226.98,-781.182 66.84,-72.43 -182.28,-189.148 -264.68,-49.297"
         style="fill:#1b162c;fill-opacity:1;fill-rule:nonzero;stroke:none"
         id="path72" />
      <path
         d="m 2953.21,838.57 c 0,0 -450.06,733.44 -194.69,895.65 255.37,162.2 357.09,32.73 410.22,-82.84 53.13,-115.58 11.47,-636.56 57.35,-723.79 45.88,-87.238 -266.95,-251.77 -272.88,-89.02"
         style="fill:#1b162c;fill-opacity:1;fill-rule:nonzero;stroke:none"
         id="path74" />
      <path
         d="m 2765.82,1199.97 c 0,0 -41.19,-275.509 -342.67,-361.4 -180.15,-51.32 -345.42,-39.172 -443.13,41.551 -97.7,80.719 -112.03,328.159 -78.6,381.099 33.42,52.93 590.62,453.99 789.31,483.91 84.35,12.7 127.82,-511.33 75.09,-545.16"
         style="fill:#1b162c;fill-opacity:1;fill-rule:nonzero;stroke:none"
         id="path76" />
      <path
         d="m 3068.13,939.25 c -0.42,3.422 -44.43,345.47 -130.54,597.31 -73.18,214.02 -159.74,203.76 -160.55,203.63 l -1.59,9.87 c 3.82,0.69 95.26,13 171.59,-210.26 86.46,-252.83 130.58,-595.859 131.02,-599.3 l -9.93,-1.25"
         style="fill:#fad1b6;fill-opacity:1;fill-rule:nonzero;stroke:none"
         id="path78" />
      <path
         d="m 2683.86,1018.21 c -8.13,10.33 -199.13,254.7 -214.99,413.44 l 9.95,1 c 15.57,-155.87 210.93,-405.75 212.89,-408.25 l -7.85,-6.19"
         style="fill:#fad1b6;fill-opacity:1;fill-rule:nonzero;stroke:none"
         id="path80" />
      <path
         d="m 2828.16,858.531 c 0,0 186.18,64.489 217.06,72.989 50.15,13.8 153.07,34.589 170.5,29.562 17.42,-5.043 10.9,-118.453 57.35,-166.043 46.45,-47.59 133.89,-120.359 118.11,-136.898 -15.78,-16.551 -215.82,20.218 -215.82,20.218 0,0 165.84,-14.879 149.67,-32.437 -16.17,-17.551 -249.69,-85.461 -313.94,-21.063 -64.24,64.403 -182.93,233.672 -182.93,233.672"
         style="fill:#f06172;fill-opacity:1;fill-rule:nonzero;stroke:none"
         id="path82" />
      <path
         d="m 3322.82,641.441 -159.09,78.051 -0.72,0.988 c -48.24,65.829 -92.82,211.77 -94.7,217.942 l 9.57,2.91 c 0.45,-1.5 45.5,-148.98 92.47,-213.953 l 156.89,-76.957 -4.42,-8.981"
         style="fill:#1b162c;fill-opacity:1;fill-rule:nonzero;stroke:none"
         id="path84" />
      <path
         d="m 1880.45,1415.28 c 0,0 166.17,-51.39 293.12,56.03 51.52,43.6 -169.61,-582.912 -193.55,-591.189 -23.94,-8.289 -182.99,176.569 -99.57,535.159"
         style="fill:#1b162c;fill-opacity:1;fill-rule:nonzero;stroke:none"
         id="path86" />
      <path
         d="M 2500,5000 H 0 v -650.91 c 0,0 110.859,-353.88 396.039,-428.48 285.176,-74.6 447.277,97.87 557.203,-100.75 62.668,-113.24 99.218,-288.86 327.358,-337.11 228.15,-48.25 385.98,42.3 480.49,16.38 94.51,-25.91 161.32,-270.91 332.2,-294.91 289.51,-40.66 256.71,-184.9 406.71,-354.99 150,170.09 117.2,314.33 406.71,354.99 170.88,24 237.69,269 332.2,294.91 94.51,25.92 252.34,-64.63 480.49,-16.38 228.14,48.25 264.69,223.87 327.36,337.11 109.92,198.62 272.02,26.15 557.2,100.75 285.18,74.6 396.04,428.48 396.04,428.48 V 5000 H 2500"
         style="fill:#1b162c;fill-opacity:1;fill-rule:nonzero;stroke:none"
         id="path88" />
      <path
         d="m 1320.23,3863.38 c 8.06,-0.15 16.36,-0.55 24.73,-1.19 l 0.01,0.01 c 19.31,25.13 42.46,48.09 67.27,66.73 -33.35,22.5 -62.6,28.06 -77.55,13.89 -17.26,-16.36 -22.13,-43.08 -14.46,-79.44 z m 173.85,-7.47 0.01,-0.01 c 19.41,7.1 38.44,11.79 56.66,13.98 5.73,30.07 5.67,54.11 -0.18,69.63 -8.7,23.09 -29.83,26.04 -46.02,24.46 -22.96,-2.25 -51.29,-14.62 -80.2,-34.96 25.52,-18.85 50.06,-44.57 69.72,-73.11 z m -172.23,0.37 c 1.52,-6.16 3.39,-12.59 5.57,-19.23 3.91,6.2 8.09,12.37 12.52,18.42 -6.11,0.41 -12.16,0.68 -18.09,0.81 z m 31.51,5.2 c 34.11,-3.24 70.3,-10.48 105.16,-21.06 9.62,4.84 19.26,9.16 28.76,12.89 -19.53,28.02 -43.82,53.16 -68.94,71.36 -23.82,-17.63 -46.14,-39.35 -64.98,-63.19 z m 114.94,-24.12 c 12.7,-4.11 25.1,-8.63 37.06,-13.5 -4.18,7.86 -8.87,15.71 -14.01,23.46 -7.6,-2.94 -15.32,-6.28 -23.05,-9.96 z m 47.18,-17.74 c 6.48,-2.81 12.85,-5.74 18.99,-8.74 6.36,18.1 11.33,35.45 14.81,51.7 -16.48,-2.17 -33.63,-6.44 -51.14,-12.72 6.54,-9.99 12.36,-20.13 17.34,-30.24 z m -203.52,-27.32 c 9.02,-1.47 18.51,-3.29 28.34,-5.43 -5.56,11.63 -10.42,22.9 -14.51,33.66 -5.26,-9.35 -9.89,-18.8 -13.83,-28.23 z m 37.15,-7.41 c 6.36,-1.48 12.82,-3.08 19.35,-4.8 h 0.01 c 26.43,22.3 53.64,40.98 81.02,55.65 -33.77,9.76 -68.55,16.33 -101.23,19.11 -6.48,-8.63 -12.48,-17.5 -17.86,-26.42 4.94,-13.7 11.23,-28.33 18.71,-43.54 z m 170.9,24.99 c 2.73,-6.19 5.13,-12.36 7.2,-18.47 1.69,4.28 3.31,8.55 4.87,12.78 -3.94,1.93 -7.97,3.83 -12.07,5.69 z m -166.77,-33.23 c 1.17,-2.29 2.35,-4.53 3.51,-6.73 1.71,1.53 3.45,3.06 5.18,4.57 -2.91,0.74 -5.81,1.46 -8.69,2.16 z m 187.61,31.05 c 16.29,-8.29 30.95,-17.11 43.63,-26.24 36.22,21.69 56.56,44.53 53.19,59.88 -2.52,11.5 -19.07,19.34 -46.58,22.08 -11.05,1.1 -22.63,1.09 -34.42,-0.01 -3.61,-17.45 -8.93,-36.15 -15.83,-55.69 l 0.01,-0.01 z m -10.35,-26.99 c 2.23,-8.04 3.85,-15.99 4.84,-23.72 15.36,6.42 29.6,13.32 42.43,20.57 -11.58,8.13 -24.78,15.99 -39.34,23.45 -2.47,-6.72 -5.13,-13.52 -7.93,-20.3 z m -4.58,-10.81 c -2.95,-6.77 -6.06,-13.54 -9.28,-20.27 4.03,1.5 8.01,3.03 11.92,4.59 -0.59,5.13 -1.47,10.37 -2.64,15.68 z m -278.22,19.34 c -21.32,-2.09 -32.51,-8.94 -33.24,-20.37 -0.73,-11.25 28.48,-35.25 74.53,-47.19 -0.1,8.84 0.69,17.89 2.38,26.95 2.34,12.54 5.95,25.31 10.75,38.04 -21.77,3.11 -40.06,3.97 -54.42,2.57 z m 129.11,-11.38 c 36.8,-10.08 74.6,-23.27 109.82,-38.33 6.91,2.11 13.79,4.35 20.48,6.68 5.71,11.54 11.06,23.27 15.93,34.94 -3.14,10.79 -7.43,21.88 -12.77,33.02 -16.24,6.93 -33.42,13.21 -51.1,18.67 -27.78,-14.22 -55.45,-32.7 -82.36,-54.98 z m -80.73,-57.89 c 3.25,-0.73 6.54,-1.38 9.81,-1.95 13.93,16.3 29.21,32.1 45.46,47.01 h -0.01 l 0.01,0.01 c -2.35,4.4 -4.72,8.98 -7.08,13.71 -12.24,2.78 -24,5.08 -35.01,6.84 -4.92,-12.81 -8.6,-25.67 -10.94,-38.26 -1.73,-9.22 -2.47,-18.41 -2.24,-27.36 z m 200.54,15.2 c 1.33,-0.58 2.65,-1.18 3.96,-1.77 0.67,1.27 1.33,2.53 1.98,3.8 -1.98,-0.66 -3.97,-1.31 -5.97,-1.95 l 0.12,-0.05 z m -136.43,28.35 c 12.32,-22.64 23.49,-39.71 27.02,-45 30.12,3.7 59.9,9.7 88.7,17.86 -34.15,14.18 -70.45,26.53 -105.68,35.94 -3.39,-2.89 -6.75,-5.84 -10.04,-8.8 z m -46.07,-46.76 c 13.22,-1.77 26.42,-2.24 39.35,-1.41 8.73,0.57 17.37,1.32 25.89,2.26 -4.78,7.29 -14.21,22.16 -24.55,41.01 -14.45,-13.34 -28.1,-27.39 -40.69,-41.86 z m -17.62,-4.11 c 0.16,-1.75 0.35,-3.5 0.58,-5.24 1.18,1.47 2.38,2.93 3.59,4.39 -1.39,0.27 -2.78,0.55 -4.17,0.85 z m 210.51,17.81 c 7.2,-3.33 14.21,-6.73 20.94,-10.14 1.4,8.45 1.82,17.35 1.26,26.57 -5.57,-2.21 -11.29,-4.35 -17.05,-6.39 -1.68,-3.35 -3.4,-6.7 -5.15,-10.04 z m -227.28,124.36 c -22.55,-2.21 -42.97,-6.76 -60.68,-13.54 -26.31,-10.06 -40.4,-24.66 -41.89,-43.39 -2.68,-33.74 37.28,-80.7 99.72,-117.48 4.44,6.44 9.22,12.98 14.26,19.48 l -0.01,0.01 0.01,0.01 c -0.89,4.72 -1.51,9.54 -1.85,14.39 l -0.03,0.03 c -45.06,11.26 -83.03,36.64 -81.85,54.99 0.68,10.59 8.11,23.86 39.61,26.94 15.27,1.5 34.69,0.54 57.74,-2.84 v 0.01 l 0.02,-0.01 c 4.91,11.96 10.9,23.97 17.85,35.77 v 0.01 0 c -3.31,9.46 -6.02,18.58 -8.07,27.18 -12.04,0.05 -23.75,-0.47 -34.83,-1.56 z m 3.28,-177.96 c 6.45,-3.63 13.01,-7.1 19.64,-10.35 -4.03,7.82 -7.2,16 -9.46,24.44 -3.55,-4.71 -6.95,-9.42 -10.18,-14.09 z m 251.54,40.06 c 32.98,-17.26 58.71,-34.92 74.82,-51.35 3.59,4 7.1,8.18 10.48,12.45 8.34,10.55 11.75,21.95 10.13,33.89 -2.64,19.48 -18.5,40.57 -45.93,61.11 -14.33,-8.29 -30.43,-16.13 -47.93,-23.35 l -0.02,-0.01 c 0.88,-11.39 0.35,-22.37 -1.58,-32.72 z M 1391.93,3712 c 18.36,-24.67 36.37,-46.19 53.64,-64.07 18.65,23.55 36.02,50.17 51.69,79.23 -3.65,1.64 -7.34,3.26 -11.05,4.87 -30.52,-9.15 -62.2,-15.88 -94.28,-20.03 z m 58.62,-69.15 c 1.47,-1.49 2.94,-2.94 4.39,-4.36 10.32,2.75 19.51,6.94 27.36,12.45 23.41,16.44 38.27,37.35 44.2,62.19 -7.29,3.73 -14.94,7.45 -22.8,11.08 -16.09,-29.86 -33.95,-57.2 -53.15,-81.36 z m -136.8,18.43 c 44.15,-19.97 87.1,-29.25 121.23,-26.22 2.06,2.41 4.1,4.85 6.12,7.32 -18.4,19 -37.64,42.07 -57.22,68.63 h -0.01 c -9.84,-1.15 -19.83,-2.05 -29.95,-2.7 -14.85,-0.96 -30.06,-0.25 -45.23,2.1 -3.43,-4.09 -6.77,-8.2 -9.98,-12.29 2.82,-13 7.88,-25.38 15.04,-36.84 z m 7.78,-11.08 c 18.56,-23.58 46.02,-41.36 78.7,-50.75 9.48,8.39 18.93,17.82 28.19,28.12 -31.16,-1.25 -68.42,6.65 -106.89,22.63 z m 139.31,-17.35 c 14.88,-13.93 29.38,-25.26 43.17,-33.73 37.38,10.11 72.06,31.24 100.57,61.26 -15.29,15.69 -39.92,32.67 -71.63,49.41 -6.61,-25.82 -22.26,-47.54 -46.59,-64.63 -7.47,-5.25 -16.03,-9.38 -25.52,-12.31 z m -52.43,-35.55 c 27.71,-6.61 57.28,-6.81 86.11,-0.5 -13.43,8.87 -27.4,20.24 -41.67,33.89 l -0.01,0.01 c -4.58,-1.04 -9.39,-1.84 -14.35,-2.39 h -0.01 c -9.83,-11.34 -19.92,-21.75 -30.07,-31.01 z m 104.08,-3.08 c 20.36,-11.02 39.26,-15.75 56.28,-14.08 27.45,2.68 40.46,21.32 40.59,21.51 l 0.68,0.74 c 8.05,6.59 12.41,13.89 12.96,21.71 0.66,9.31 -3.93,19.75 -13.64,31.06 -27.65,-28.99 -60.93,-49.91 -96.87,-60.94 z M 1279.04,3671 c -30.18,-45.52 -41.54,-84.68 -30.4,-105.11 6.43,-11.79 20.27,-17.54 41.14,-17.09 34.44,0.75 69.2,16 104.11,45.19 -36.52,11.47 -66.5,33.2 -84.98,61.72 l -0.01,0.01 c -10.1,4.63 -20.12,9.76 -29.86,15.28 z m 20.66,-128.67 c -3.25,-0.32 -6.5,-0.52 -9.77,-0.59 -23.72,-0.51 -39.7,6.48 -47.49,20.77 -12.57,23.05 -1.45,63.76 30.48,112.03 -65.48,38.65 -105.73,87.04 -102.8,123.9 1.73,21.69 17.34,38.32 46.41,49.44 26.85,10.27 59.65,15.57 96.48,15.57 -7.74,38.16 -2.09,66.57 16.82,84.49 5.82,5.52 13.2,8.76 21.92,9.61 17.85,1.75 41.4,-6.83 66.53,-24.19 30.58,21.87 60.89,35.22 85.58,37.63 26.37,2.59 45.3,-7.71 53.32,-28.99 6.16,-16.36 6.46,-40.97 0.89,-71.38 11.53,0.96 22.86,0.9 33.71,-0.18 39.48,-3.93 50.5,-17.17 52.78,-27.59 4.08,-18.56 -15.53,-42.45 -53.96,-65.94 27.56,-21.17 43.56,-43.24 46.38,-64.05 1.88,-13.91 -2.02,-27.1 -11.59,-39.21 -3.61,-4.57 -7.37,-9.02 -11.2,-13.28 11.32,-13 16.65,-25.36 15.85,-36.76 -0.68,-9.72 -5.78,-18.59 -15.16,-26.38 -2.32,-3.16 -16.81,-21.32 -45.42,-24.12 -20.2,-1.98 -42.58,4.22 -66.54,18.42 -33.55,-8.54 -68.54,-8.5 -100.9,0.1 -34.07,-29.4 -68.48,-45.99 -102.32,-49.3"
         style="fill:#fcd2b7;fill-opacity:1;fill-rule:nonzero;stroke:none"
         id="path90" />
      <path
         d="m 883.594,4800.76 c 7.668,2.51 15.636,4.85 23.754,6.99 l 0.007,0.01 c 9.997,30.08 24.336,59.36 41.657,85.11 -38.887,10.31 -68.344,5.97 -77.824,-12.32 -10.938,-21.12 -6.762,-47.95 12.406,-79.79 z m 166.686,49.98 0.01,-0.01 c 16,13.07 32.44,23.75 48.94,31.79 -4.46,30.29 -12.4,52.98 -23.02,65.72 -15.79,18.96 -36.72,14.82 -51.5,8.01 -20.94,-9.66 -43.651,-30.64 -64.284,-59.33 30.285,-9.44 61.914,-25.69 89.844,-46.19 z m -162.823,-56.15 c 3.453,-5.32 7.328,-10.79 11.566,-16.34 1.661,7.14 3.59,14.34 5.782,21.51 -5.903,-1.62 -11.707,-3.35 -17.348,-5.17 z m 28.059,15.24 c 33.289,8.13 69.843,13.17 106.244,14.61 7.5,7.72 15.2,14.97 22.94,21.61 -27.64,20.06 -58.833,35.85 -88.532,44.79 -16.719,-24.46 -30.684,-52.3 -40.652,-81.01 z m 116.494,14.93 c 13.34,0.28 26.54,0.08 39.44,-0.59 -6.53,6.04 -13.54,11.92 -20.94,17.56 -6.21,-5.27 -12.41,-10.96 -18.5,-16.97 z m 50.38,-1.29 c 7.05,-0.52 14.03,-1.2 20.81,-2.02 0.07,19.19 -0.93,37.21 -2.97,53.69 -14.85,-7.44 -29.66,-17.1 -44.14,-28.79 9.46,-7.29 18.28,-14.96 26.3,-22.88 z M 899.098,4730.9 c 9.004,1.57 18.566,2.97 28.558,4.17 -9.07,9.16 -17.359,18.22 -24.754,27.04 -1.898,-10.56 -3.172,-21.01 -3.804,-31.21 z m 37.527,5.19 c 6.496,0.68 13.125,1.29 19.859,1.82 h 0.004 c 17.653,29.73 37.227,56.3 58.282,79.14 -35.102,-1.85 -70.118,-7.06 -101.903,-15.16 -3.281,-10.27 -6.039,-20.62 -8.203,-30.81 9.164,-11.31 19.906,-23.08 31.961,-34.99 z m 153.245,79.68 c 4.61,-4.96 8.9,-10 12.86,-15.09 0.19,4.59 0.33,9.16 0.4,13.67 -4.34,0.53 -8.78,1 -13.26,1.42 z m -146.636,-86.11 c 1.856,-1.77 3.7,-3.51 5.52,-5.21 1.117,2.01 2.25,4.02 3.398,6.02 -2.996,-0.25 -5.972,-0.52 -8.918,-0.81 z m 167.036,90.88 c 18.11,-2.49 34.85,-6.01 49.82,-10.48 27.11,32.37 38.83,60.62 30.61,74.02 -6.16,10.03 -24.36,12.01 -51.25,5.57 -10.8,-2.58 -21.73,-6.38 -32.51,-11.3 2.31,-17.66 3.43,-37.08 3.32,-57.8 h 0.01 z m -0.92,-28.89 c 4.74,-6.86 8.88,-13.85 12.35,-20.82 12.41,11.1 23.59,22.29 33.34,33.35 -13.61,3.88 -28.66,6.98 -44.86,9.25 -0.13,-7.16 -0.41,-14.47 -0.83,-21.78 z m -0.79,-11.72 c -0.56,-7.36 -1.27,-14.78 -2.11,-22.19 3.31,2.73 6.58,5.49 9.76,8.25 -2.24,4.65 -4.8,9.31 -7.65,13.94 z m -269.154,-73 c -19.465,-8.97 -27.781,-19.11 -24.726,-30.14 3.008,-10.87 38.468,-23.96 85.89,-20.13 -3,8.31 -5.215,17.12 -6.59,26.23 -1.902,12.61 -2.683,25.87 -2.332,39.47 -21.585,-4.21 -39.144,-9.4 -52.242,-15.43 z m 125.692,31.6 c 38.072,2.55 78.112,2.49 116.312,-0.17 5.84,4.25 11.6,8.63 17.16,13.03 1.61,12.76 2.82,25.61 3.59,38.23 -6.5,9.16 -14.2,18.23 -22.9,27 -17.61,1.22 -35.9,1.51 -54.4,0.87 -21.57,-22.54 -41.649,-49.08 -59.762,-78.96 z m -57.266,-81.17 c 3.309,0.39 6.625,0.85 9.906,1.39 7.809,19.96 17.059,39.89 27.516,59.31 h -0.008 l 0.008,0.01 c -3.656,3.39 -7.406,6.94 -11.188,10.63 -12.476,-1.39 -24.336,-3.07 -35.312,-5.02 -0.445,-13.72 0.297,-27.07 2.211,-39.73 1.398,-9.28 3.707,-18.21 6.867,-26.59 z m 184.448,80.16 c 1.45,-0.13 2.89,-0.25 4.33,-0.38 0.21,1.41 0.42,2.83 0.62,4.24 -1.66,-1.27 -3.32,-2.54 -5,-3.8 l 0.13,-0.01 z m -138.178,-17.98 c 19.07,-17.35 35.214,-29.81 40.293,-33.65 27.235,13.38 53.395,28.82 77.935,45.98 -36.91,2.18 -75.26,1.94 -111.635,-0.72 -2.25,-3.85 -4.453,-7.73 -6.593,-11.61 z m -28.176,-59.29 c 13.062,2.67 25.691,6.56 37.629,11.58 8.062,3.4 15.98,6.94 23.718,10.62 -6.906,5.33 -20.695,16.28 -36.644,30.7 -9.274,-17.35 -17.559,-35.1 -24.703,-52.9 z m -15.297,-9.66 c 0.719,-1.6 1.476,-3.19 2.266,-4.76 0.632,1.78 1.285,3.55 1.945,5.33 -1.402,-0.21 -2.805,-0.39 -4.211,-0.57 z m 193.021,85.88 c 7.89,-0.79 15.63,-1.7 23.1,-2.71 -1.45,8.44 -3.97,16.99 -7.52,25.51 -4.55,-3.91 -9.24,-7.8 -14.02,-11.63 -0.49,-3.71 -1.01,-7.44 -1.56,-11.17 z m -255.505,42.92 c -20.579,-9.48 -38.375,-20.48 -52.879,-32.69 -21.551,-18.14 -30.075,-36.56 -25.336,-54.74 8.531,-32.75 61.687,-64 132.738,-78.27 2.078,7.55 4.449,15.29 7.074,23.09 h -0.004 l 0.004,0.01 c -2.387,4.17 -4.558,8.53 -6.469,13 l -0.039,0.01 c -46.257,-4.14 -90.449,7.37 -95.359,25.1 -2.832,10.22 -0.168,25.19 28.574,38.44 13.942,6.43 32.594,11.89 55.485,16.26 v 0.01 h 0.011 c 0.715,12.9 2.438,26.22 5.133,39.64 h -0.004 v 0.01 c -6.23,7.85 -11.781,15.58 -16.539,23.03 -11.39,-3.9 -22.277,-8.24 -32.39,-12.9 z m 61.48,-167.03 c 7.277,-1.32 14.617,-2.44 21.949,-3.34 -6.379,6.07 -12.051,12.75 -16.961,19.98 -1.808,-5.61 -3.476,-11.18 -4.988,-16.64 z m 224.485,120.35 c 36.81,-5.48 66.91,-13.72 87.52,-23.95 2.07,4.95 4.02,10.04 5.81,15.19 4.42,12.7 3.9,24.59 -1.55,35.34 -8.88,17.53 -30.78,32.26 -63.43,42.66 -10.82,-12.53 -23.46,-25.22 -37.62,-37.78 l -0.02,-0.03 c 4.57,-10.46 7.68,-21.01 9.25,-31.42 z m -133.12,-51.44 c 25.44,-17.27 49.51,-31.69 71.68,-42.92 9.9,28.37 17.57,59.21 22.85,91.8 -3.99,0.35 -8.01,0.68 -12.05,0.98 -25.82,-18.65 -53.54,-35.4 -82.48,-49.86 z m 78.06,-46.09 c 1.88,-0.91 3.74,-1.8 5.57,-2.67 8.85,5.99 16.16,12.95 21.77,20.74 16.72,23.2 23.89,47.84 21.35,73.25 -8.11,1.13 -16.55,2.13 -25.18,2.98 -5.4,-33.48 -13.3,-65.17 -23.51,-94.3 z m -135.28,-27.47 c 48.257,-4.37 91.88,0.95 123.13,15.01 1.15,2.95 2.28,5.93 3.38,8.93 -23.62,11.91 -49.36,27.39 -76.573,46.05 h -0.008 c -8.918,-4.31 -18.062,-8.45 -27.406,-12.37 -13.719,-5.78 -28.316,-10.1 -43.41,-12.86 -1.906,-4.99 -3.711,-9.97 -5.406,-14.88 6.933,-11.35 15.769,-21.39 26.293,-29.88 z m 10.984,-7.9 c 25.266,-16.19 57.046,-23.97 91.006,-22.13 6.2,11.03 12.03,23.05 17.39,35.81 -29.02,-11.4 -66.81,-16.16 -108.396,-13.68 z m 137.306,29.31 c 18.62,-8.28 36.03,-14.23 51.84,-17.71 31.99,21.82 57.82,53.16 74.9,90.87 -19.59,9.8 -48.42,17.77 -83.87,23.17 2.23,-26.55 -5.43,-52.2 -22.81,-76.33 -5.34,-7.41 -12.07,-14.12 -20.06,-20 z m -37.88,-50.78 c 28.35,2.84 56.35,12.35 81.52,27.77 -15.6,3.98 -32.53,10.13 -50.49,18.35 h -0.02 c -3.98,-2.49 -8.26,-4.82 -12.76,-6.96 l -0.01,-0.01 c -5.57,-13.94 -11.69,-27.08 -18.24,-39.15 z m 99.34,31.23 c 22.84,-3.73 42.25,-2 57.78,5.16 25.04,11.54 31.22,33.41 31.28,33.63 l 0.4,0.93 c 5.45,8.86 7.17,17.19 5.13,24.76 -2.44,9.01 -10.19,17.37 -23.08,24.87 -16.6,-36.46 -41.18,-67.14 -71.51,-89.35 z m -245.719,-4.05 c -13.578,-52.91 -11.469,-93.62 5.762,-109.27 9.937,-9.04 24.898,-9.92 44.468,-2.65 32.285,12.01 60.119,37.82 83.519,76.84 -38.26,-1.14 -73.702,9.56 -100.519,30.44 h -0.011 c -11.059,1.06 -22.215,2.62 -33.219,4.64 z m 61.722,-114.78 c -2.964,-1.36 -5.972,-2.62 -9.035,-3.76 -22.238,-8.26 -39.625,-6.9 -51.672,4.04 -19.437,17.66 -22.296,59.76 -7.961,115.84 -74.542,15.02 -128.433,47.53 -137.757,83.32 -5.485,21.05 3.804,41.88 27.617,61.92 21.996,18.51 51.246,34.28 86.035,46.35 -19.828,33.51 -23.812,62.21 -11.828,85.34 3.691,7.13 9.594,12.6 17.555,16.27 16.285,7.51 41.351,7.13 70.785,-1.03 21.711,30.7 45.968,53.25 68.498,63.63 24.06,11.09 45.33,7.57 59.88,-9.9 11.19,-13.43 19.54,-36.58 24.26,-67.13 10.58,4.69 21.3,8.35 31.9,10.89 38.59,9.24 53.34,0.34 58.91,-8.75 9.95,-16.2 -0.75,-45.2 -29.34,-80 32.97,-10.95 55.34,-26.56 64.82,-45.29 6.34,-12.52 6.99,-26.27 1.92,-40.84 -1.91,-5.5 -4,-10.94 -6.23,-16.22 14.97,-8.57 24.06,-18.49 27.04,-29.53 2.54,-9.39 0.63,-19.45 -5.67,-29.89 -1.16,-3.75 -8.89,-25.65 -34.99,-37.68 -18.43,-8.5 -41.61,-9.98 -68.9,-4.43 -28.9,-19.08 -61.96,-30.51 -95.35,-33.01 -22.54,-38.95 -49.61,-65.91 -80.487,-80.14"
         style="fill:#fcd2b7;fill-opacity:1;fill-rule:nonzero;stroke:none"
         id="path92" />
      <path
         d="m 2663.69,4268.39 c -8.06,0.4 -16.34,1.04 -24.69,1.93 h -0.01 c -20.05,-24.54 -43.88,-46.8 -69.24,-64.69 32.66,-23.49 61.74,-29.92 77.11,-16.21 17.74,15.84 23.4,42.4 16.83,78.97 z m -173.55,12.68 -0.01,0.01 c -19.61,-6.51 -38.77,-10.64 -57.06,-12.28 -6.62,-29.89 -7.28,-53.92 -1.9,-69.6 8,-23.34 29.04,-26.93 45.27,-25.83 23.01,1.56 51.71,13.08 81.2,32.54 -24.93,19.6 -48.7,46.05 -67.49,75.16 z m 172.14,-5.53 c -1.34,6.2 -3.01,12.69 -4.99,19.39 -4.09,-6.08 -8.46,-12.12 -13.06,-18.04 6.09,-0.59 12.13,-1.04 18.05,-1.35 z m -31.65,-4.25 c -34,4.26 -69.95,12.58 -104.48,24.19 -9.76,-4.55 -19.53,-8.58 -29.14,-12.02 18.69,-28.59 42.21,-54.45 66.78,-73.39 24.33,16.91 47.3,37.95 66.84,61.22 z m -114.17,27.55 c -12.57,4.48 -24.83,9.37 -36.64,14.59 3.95,-7.97 8.4,-15.96 13.3,-23.86 7.69,2.71 15.51,5.81 23.34,9.27 z m -46.62,19.14 c -6.4,3 -12.68,6.13 -18.73,9.31 -6.89,-17.91 -12.38,-35.1 -16.34,-51.24 16.53,1.68 33.81,5.43 51.5,11.19 -6.25,10.17 -11.76,20.49 -16.43,30.74 z m 204.25,21.21 c -8.98,1.74 -18.41,3.85 -28.17,6.28 5.21,-11.79 9.73,-23.2 13.49,-34.08 5.54,9.18 10.45,18.5 14.68,27.8 z m -36.92,8.53 c -6.31,1.67 -12.72,3.46 -19.2,5.37 h -0.01 c -27.08,-21.5 -54.84,-39.36 -82.64,-53.2 33.46,-10.76 68.03,-18.37 100.61,-22.13 6.73,8.43 12.99,17.12 18.64,25.87 -4.53,13.84 -10.38,28.66 -17.4,44.09 z m -171.57,-19.87 c -2.54,6.28 -4.76,12.51 -6.64,18.68 -1.82,-4.23 -3.57,-8.45 -5.25,-12.63 3.87,-2.05 7.84,-4.07 11.89,-6.05 z m 167.68,28.22 c -1.1,2.32 -2.2,4.61 -3.3,6.84 -1.76,-1.48 -3.53,-2.96 -5.32,-4.42 2.89,-0.83 5.77,-1.63 8.62,-2.42 z m -188.45,-25.42 c -16.03,8.78 -30.42,18.03 -42.82,27.54 -36.86,-20.59 -57.87,-42.81 -54.96,-58.26 2.18,-11.57 18.48,-19.9 45.9,-23.47 11.01,-1.42 22.58,-1.77 34.41,-1.01 4.13,17.32 10,35.86 17.48,55.19 h -0.01 z m 11.15,26.67 c -1.98,8.1 -3.36,16.1 -4.12,23.85 -15.55,-5.95 -29.99,-12.42 -43.03,-19.29 11.33,-8.47 24.29,-16.72 38.62,-24.61 2.68,6.64 5.54,13.36 8.53,20.05 z m 4.91,10.66 c 3.15,6.69 6.46,13.37 9.88,19.99 -4.07,-1.37 -8.1,-2.79 -12.05,-4.23 0.43,-5.14 1.16,-10.41 2.17,-15.76 z m 277.51,-27.65 c 21.38,1.45 32.77,7.97 33.84,19.36 1.06,11.23 -27.41,36.09 -73.08,49.4 -0.17,-8.84 -1.23,-17.86 -3.19,-26.86 -2.72,-12.46 -6.71,-25.12 -11.88,-37.7 21.67,-3.76 39.92,-5.17 54.31,-4.2 z m -128.7,15.24 c -36.49,11.18 -73.88,25.5 -108.63,41.6 -6.97,-1.9 -13.91,-3.94 -20.67,-6.07 -6.06,-11.35 -11.76,-22.92 -16.97,-34.44 2.81,-10.88 6.77,-22.1 11.77,-33.39 16.03,-7.41 33.01,-14.2 50.52,-20.19 28.2,13.38 56.41,31.03 83.98,52.49 z m 82.42,55.45 c -3.23,0.82 -6.49,1.57 -9.75,2.24 -14.41,-15.88 -30.15,-31.21 -46.84,-45.63 v 0 0 c 2.21,-4.47 4.44,-9.13 6.66,-13.93 12.16,-3.14 23.84,-5.79 34.79,-7.88 5.3,12.66 9.36,25.4 12.09,37.91 1.99,9.17 3.02,18.34 3.05,27.29 z m -200.91,-9.2 c -1.3,0.63 -2.61,1.26 -3.9,1.89 -0.7,-1.24 -1.4,-2.49 -2.09,-3.74 2,0.6 4,1.19 6.02,1.78 l -0.11,0.05 z m 135.53,-32.41 c -11.65,23 -22.29,40.39 -25.67,45.79 -30.21,-2.81 -60.16,-7.91 -89.19,-15.2 33.71,-15.2 69.62,-28.63 104.56,-39.09 3.47,2.79 6.91,5.63 10.3,8.5 z m 47.44,45.36 c -13.15,2.16 -26.34,3.02 -39.28,2.58 -8.75,-0.31 -17.41,-0.8 -25.95,-1.47 4.56,-7.44 13.54,-22.59 23.31,-41.74 14.84,12.9 28.91,26.54 41.92,40.63 z m 17.74,3.57 c -0.11,1.76 -0.25,3.51 -0.43,5.26 -1.22,-1.43 -2.46,-2.86 -3.71,-4.28 1.38,-0.31 2.76,-0.64 4.14,-0.98 z m -210.95,-11.49 c -7.1,3.54 -14.01,7.15 -20.62,10.76 -1.66,-8.41 -2.35,-17.29 -2.06,-26.52 5.64,2.04 11.41,4 17.24,5.87 1.78,3.31 3.59,6.6 5.44,9.89 z m 223.45,-131.12 c 22.61,1.54 43.16,5.48 61.06,11.72 26.6,9.27 41.12,23.44 43.17,42.12 3.69,33.64 -34.84,81.78 -96.15,120.42 -4.63,-6.31 -9.61,-12.7 -14.84,-19.05 l 0.01,-0.01 -0.01,-0.01 c 0.74,-4.74 1.22,-9.58 1.42,-14.44 l 0.03,-0.03 c 44.7,-12.61 81.89,-39.11 80.16,-57.42 -0.99,-10.56 -8.81,-23.6 -40.39,-25.74 -15.32,-1.04 -34.69,0.5 -57.64,4.57 v -0.01 l -0.01,0.01 c -5.27,-11.81 -11.62,-23.64 -18.92,-35.22 h 0.01 l -0.01,-0.01 c 3.03,-9.55 5.46,-18.75 7.25,-27.41 12.04,-0.42 23.76,-0.24 34.86,0.51 z m 2.05,177.98 c -6.33,3.83 -12.79,7.49 -19.32,10.94 3.8,-7.94 6.72,-16.2 8.73,-24.71 3.69,4.6 7.23,9.2 10.59,13.77 z m -252.63,-32.5 c -32.44,18.24 -57.63,36.66 -73.24,53.56 -3.71,-3.89 -7.34,-7.96 -10.85,-12.13 -8.65,-10.3 -12.4,-21.59 -11.14,-33.57 2.05,-19.55 17.28,-41.11 44.08,-62.46 14.57,7.85 30.9,15.21 48.61,21.91 l 0.02,0.01 c -0.53,11.41 0.32,22.37 2.55,32.66 z m 142.72,0.65 c -17.62,25.2 -34.98,47.25 -51.7,65.64 -19.35,-22.98 -37.51,-49.07 -54.04,-77.64 3.59,-1.75 7.23,-3.49 10.9,-5.21 30.78,8.23 62.64,14.01 94.84,17.21 z m -56.53,70.87 c -1.43,1.53 -2.85,3.02 -4.26,4.48 -10.39,-2.44 -19.71,-6.34 -27.72,-11.62 -23.89,-15.73 -39.37,-36.19 -46.04,-60.84 7.17,-3.94 14.7,-7.89 22.46,-11.76 16.97,29.37 35.64,56.16 55.56,79.74 z m 136.19,-22.52 c -43.53,21.28 -86.19,31.84 -120.4,29.84 -2.12,-2.35 -4.24,-4.73 -6.34,-7.14 17.83,-19.54 36.37,-43.17 55.15,-70.3 l 0.01,-0.01 c 9.87,0.86 19.88,1.46 30.01,1.8 14.88,0.51 30.06,-0.65 45.15,-3.45 3.56,3.99 7.02,7.99 10.35,11.98 -2.44,13.08 -7.12,25.61 -13.93,37.28 z m -7.45,11.3 c -17.84,24.13 -44.76,42.72 -77.15,53.09 -9.72,-8.1 -19.45,-17.24 -29.01,-27.26 31.18,0.31 68.19,-8.7 106.16,-25.83 z m -138.73,21.53 c -14.45,14.36 -28.6,26.12 -42.14,35 -37.66,-8.99 -72.96,-29.07 -102.36,-58.22 14.82,-16.14 38.92,-33.86 70.13,-51.53 7.37,25.6 23.66,46.84 48.5,63.2 7.62,5.02 16.3,8.89 25.87,11.55 z m 53.48,33.95 c -27.51,7.44 -57.05,8.53 -86.07,3.08 13.16,-9.27 26.79,-21.05 40.64,-35.12 l 0.02,-0.01 c 4.61,0.9 9.44,1.56 14.41,1.95 l 0.01,0.01 c 10.16,11.05 20.56,21.14 30.99,30.09 z m -103.95,6.2 c -20.02,11.62 -38.77,16.92 -55.83,15.76 -27.51,-1.86 -41.08,-20.1 -41.21,-20.29 l -0.71,-0.71 c -8.24,-6.35 -12.82,-13.52 -13.6,-21.32 -0.94,-9.29 3.33,-19.86 12.7,-31.45 28.5,28.15 62.4,48.07 98.65,58.01 z m 231.04,-83.74 c 31.53,44.6 44.07,83.4 33.54,104.16 -6.07,11.98 -19.73,18.14 -40.61,18.31 -34.44,0.29 -69.65,-13.92 -105.41,-42.05 36.16,-12.56 65.47,-35.18 83.09,-64.24 l 0.01,-0.01 c 9.95,-4.93 19.82,-10.36 29.38,-16.17 z m -16.79,129.24 c 3.26,0.22 6.52,0.32 9.78,0.29 23.73,-0.19 39.49,-7.66 46.85,-22.18 11.87,-23.42 -0.46,-63.78 -33.82,-111.07 64.3,-40.59 103.08,-90.16 99.04,-126.92 -2.37,-21.63 -18.47,-37.79 -47.86,-48.03 -27.15,-9.46 -60.1,-13.78 -96.9,-12.67 6.59,-38.38 0.09,-66.61 -19.35,-83.95 -5.99,-5.35 -13.45,-8.36 -22.2,-8.95 -17.89,-1.21 -41.18,8.06 -65.77,26.17 -31.22,-20.95 -61.92,-33.38 -86.67,-35.05 -26.43,-1.79 -45.05,9.06 -52.43,30.57 -5.67,16.54 -5.23,41.15 1.25,71.38 -11.56,-0.62 -22.88,-0.22 -33.7,1.18 -39.34,5.11 -49.95,18.68 -51.93,29.16 -3.52,18.68 16.81,41.97 55.92,64.3 -26.91,21.98 -42.25,44.53 -44.44,65.41 -1.47,13.96 2.83,27.03 12.75,38.85 3.75,4.46 7.64,8.79 11.6,12.93 -10.93,13.34 -15.89,25.85 -14.75,37.23 0.97,9.68 6.34,18.4 15.95,25.91 2.42,3.09 17.44,20.8 46.12,22.75 20.25,1.37 42.43,-5.5 65.96,-20.41 33.79,7.54 68.76,6.44 100.85,-3.12 34.93,28.37 69.83,43.92 103.75,46.22"
         style="fill:#fcd2b7;fill-opacity:1;fill-rule:nonzero;stroke:none"
         id="path94" />
      <path
         d="m 4631.99,4650.35 c 7.59,-2.71 15.33,-5.73 23.06,-9.01 h 0.01 c 26.32,17.66 55.58,32.04 85.04,41.8 -24.43,31.95 -50.39,46.56 -69.08,37.9 -21.57,-10 -34.7,-33.78 -39.03,-70.69 z m 162.39,-62.52 0.01,-0.02 c 20.65,0.55 40.19,-1.07 58.16,-4.81 15.01,26.68 22.63,49.48 22.03,66.05 -0.88,24.66 -19.96,34.2 -35.82,37.86 -22.47,5.19 -53.27,2.5 -87.15,-7.55 18.17,-26.01 33.22,-58.22 42.76,-91.53 z m -163.12,55.28 c -0.52,-6.32 -0.81,-13.02 -0.85,-20 5.68,4.62 11.61,9.14 17.74,13.47 -5.66,2.33 -11.31,4.51 -16.89,6.53 z m 31.52,-5.13 c 31.3,-13.94 63.29,-32.34 92.95,-53.48 10.66,1.51 21.19,2.53 31.38,3.04 -9.58,32.78 -24.58,64.36 -42.59,89.62 -28.2,-9.12 -56.28,-22.58 -81.74,-39.18 z m 101.25,-59.51 c 10.72,-7.94 21.04,-16.18 30.83,-24.61 -1.47,8.78 -3.41,17.72 -5.81,26.7 -8.14,-0.36 -16.52,-1.06 -25.02,-2.09 z m 39.05,-31.86 c 5.26,-4.73 10.36,-9.54 15.22,-14.34 11.8,15.13 22.04,29.99 30.52,44.28 -16.3,3.2 -33.93,4.63 -52.53,4.25 3.02,-11.55 5.3,-23.02 6.79,-34.19 z m -201.6,39.02 c 8.08,-4.28 16.5,-9.03 25.13,-14.2 -1.56,12.8 -2.57,25.04 -3.01,36.54 -7.97,-7.18 -15.38,-14.67 -22.12,-22.34 z m 32.85,-18.88 c 5.56,-3.43 11.17,-7.01 16.82,-10.71 v -0.01 c 32.16,12.7 63.91,21.74 94.53,26.9 -28.89,20.02 -59.76,37.34 -89.85,50.4 -8.89,-6.12 -17.4,-12.61 -25.35,-19.35 0.32,-14.55 1.61,-30.43 3.85,-47.23 z m 169.95,-30.81 c 0.61,-6.74 0.92,-13.36 0.93,-19.8 2.97,3.51 5.87,7.04 8.69,10.56 -3.11,3.08 -6.33,6.17 -9.62,9.24 z m -168.66,21.69 c 0.38,-2.55 0.77,-5.05 1.18,-7.5 2.11,0.9 4.24,1.8 6.37,2.67 -2.53,1.64 -5.04,3.25 -7.55,4.83 z m 187.71,-30.4 c 12.8,-13.06 23.88,-26.09 32.98,-38.79 41.25,9 67.82,24.17 69.52,39.79 1.27,11.7 -11.91,24.41 -37.12,35.78 -10.12,4.57 -21.09,8.26 -32.62,10.97 -8.98,-15.38 -19.99,-31.42 -32.76,-47.74 l 0.01,-0.01 z m -18.41,-22.28 c -0.46,-8.33 -1.46,-16.39 -2.98,-24.03 16.61,1.18 32.3,3.19 46.78,5.97 -8.39,11.39 -18.39,23.06 -29.81,34.77 -4.49,-5.58 -9.18,-11.19 -13.99,-16.71 z m -7.79,-8.79 c -4.96,-5.48 -10.06,-10.91 -15.26,-16.25 4.29,0.13 8.56,0.32 12.76,0.55 1.08,5.04 1.91,10.29 2.5,15.7 z m -257.53,107.05 c -20.88,4.82 -33.66,1.9 -38,-8.7 -4.27,-10.43 15.76,-42.49 55.59,-68.5 2.72,8.42 6.36,16.74 10.85,24.78 6.22,11.14 13.72,22.1 22.32,32.64 -19.64,9.88 -36.7,16.53 -50.76,19.78 z m 118.74,-51.96 c 31.66,-21.29 63.29,-45.84 91.86,-71.34 7.23,-0.21 14.46,-0.28 21.55,-0.2 9.09,9.11 17.9,18.52 26.24,28.03 0.46,11.22 -0.06,23.11 -1.57,35.37 -13.19,11.75 -27.47,23.18 -42.49,33.99 -30.86,-4.62 -62.98,-13.31 -95.59,-25.85 z m -94.97,-29.12 c 2.85,-1.72 5.75,-3.39 8.68,-4.97 18.39,11.01 37.91,21.11 58.06,30.05 v 0.01 h 0.01 c -0.82,4.92 -1.61,10.02 -2.34,15.26 -10.71,6.54 -21.12,12.46 -31,17.64 -8.74,-10.57 -16.33,-21.58 -22.57,-32.77 -4.57,-8.19 -8.21,-16.66 -10.84,-25.22 z m 194.91,-49.54 c 1.07,-0.98 2.14,-1.96 3.19,-2.95 1.04,0.99 2.07,1.99 3.09,2.98 -2.09,0.01 -4.18,0.02 -6.28,0.05 l 0.1,-0.08 z m -120.27,70.37 c 4.47,-25.39 9.6,-45.12 11.27,-51.27 29.72,-6.09 59.86,-9.9 89.76,-11.35 -27.84,24.32 -58.31,47.61 -88.7,67.77 -4.14,-1.67 -8.26,-3.39 -12.33,-5.15 z m -58.57,-29.63 c 11.96,-5.88 24.33,-10.54 36.84,-13.87 8.46,-2.25 16.89,-4.3 25.26,-6.13 -2.2,8.44 -6.4,25.55 -10.18,46.71 -17.95,-8.04 -35.37,-17 -51.92,-26.71 z m -18.01,1.73 c -0.41,-1.71 -0.78,-3.43 -1.12,-5.15 1.59,1.02 3.19,2.02 4.8,3.02 -1.23,0.7 -2.46,1.41 -3.68,2.13 z m 205.2,-50.26 c 5.76,-5.45 11.32,-10.91 16.61,-16.28 4.02,7.57 7.26,15.87 9.67,24.78 -5.99,-0.31 -12.09,-0.52 -18.2,-0.62 -2.67,-2.64 -5.36,-5.26 -8.08,-7.88 z m -175.75,190.36 c -22.08,5.09 -42.89,7.29 -61.84,6.52 -28.14,-1.15 -46.15,-10.5 -53.54,-27.78 -13.3,-31.11 9.6,-88.36 57.05,-143.14 6.26,4.69 12.88,9.37 19.73,13.92 h -0.01 l 0.02,0.01 c 0.66,4.76 1.61,9.53 2.83,14.24 l -0.02,0.03 c -39.11,25.04 -67.01,61.2 -60.04,78.23 4.03,9.81 15.29,20.02 46.13,12.9 14.96,-3.45 33.05,-10.55 53.83,-21.11 v 0 h 0.01 c 8.47,9.77 17.98,19.24 28.33,28.2 v 0.01 0 c -0.12,10.02 0.23,19.54 1.03,28.34 -11.4,3.89 -22.67,7.12 -33.51,9.63 z m -53.64,-169.71 c 4.94,-5.5 10.06,-10.88 15.3,-16.08 -1.32,8.7 -1.72,17.45 -1.17,26.18 -4.87,-3.33 -9.59,-6.71 -14.13,-10.1 z m 251.17,-42.26 c 25.76,-26.87 44.51,-51.82 54.54,-72.53 4.68,2.65 9.34,5.49 13.9,8.46 11.27,7.34 18.14,17.06 20.41,28.9 3.71,19.29 -4.59,44.35 -24.04,72.56 -16.23,-3.28 -33.99,-5.58 -52.88,-6.85 h -0.02 c -2.8,-11.07 -6.8,-21.32 -11.93,-30.51 z m -136.75,40.82 c 9.55,-29.24 19.75,-55.37 30.41,-77.83 25.19,16.37 50.14,36.07 74.26,58.61 -2.93,2.71 -5.91,5.43 -8.92,8.14 -31.84,1.06 -64.01,4.79 -95.75,11.08 z m 33.51,-84.24 c 0.93,-1.87 1.85,-3.71 2.77,-5.52 10.66,-0.69 20.71,0.35 29.91,3.07 27.42,8.11 48.18,23.2 61.73,44.85 -5.72,5.85 -11.79,11.82 -18.08,17.78 -24.77,-23.18 -50.42,-43.4 -76.33,-60.18 z m -123.78,61.1 c 35.48,-33 73.23,-55.49 106.55,-63.51 2.71,1.62 5.43,3.29 8.13,4.99 -11.38,23.88 -22.26,51.87 -32.35,83.29 h -0.01 c -9.69,2.05 -19.45,4.38 -29.24,7 -14.38,3.83 -28.57,9.34 -42.2,16.41 -4.56,-2.78 -9.03,-5.61 -13.38,-8.46 -1.47,-13.22 -0.63,-26.57 2.5,-39.72 z m 3.85,-12.98 c 10.06,-28.26 30.43,-53.87 58.41,-73.2 11.65,4.93 23.62,10.85 35.68,17.66 -29.93,8.76 -62.73,28.13 -94.09,55.54 z m 126.5,-60.87 c 9.66,-17.95 19.79,-33.31 30.16,-45.74 38.65,-2.33 78.26,6.63 114.85,25.99 -9.49,19.75 -27.41,43.7 -52.13,69.67 -14.49,-22.36 -36.26,-37.95 -64.77,-46.39 -8.75,-2.59 -18.18,-3.78 -28.11,-3.53 z m -61.03,-16.97 c 24.16,-15.1 52.11,-24.73 81.46,-27.94 -9.9,12.69 -19.52,27.92 -28.69,45.41 l -0.01,0.02 c -4.68,0.47 -9.49,1.24 -14.36,2.3 h -0.01 c -12.93,-7.61 -25.82,-14.25 -38.39,-19.79 z m 97.67,-36.12 c 15.78,-16.93 32.18,-27.45 48.85,-31.29 26.86,-6.21 45.14,7.31 45.32,7.44 l 0.88,0.49 c 9.74,3.68 16.2,9.2 19.21,16.44 3.6,8.62 2.58,19.98 -3.02,33.79 -35.45,-18.66 -73.66,-27.88 -111.24,-26.87 z m -196.78,147.22 c -43.12,-33.52 -66.38,-67.01 -62.34,-89.93 2.34,-13.22 13.62,-23.08 33.55,-29.31 32.88,-10.28 70.69,-6.9 113.08,9.63 -30.96,22.51 -52.43,52.67 -60.85,85.6 l -0.01,0.01 c -8.09,7.61 -15.96,15.67 -23.43,24 z m -21.45,-128.54 c -3.18,0.73 -6.33,1.59 -9.45,2.56 -22.64,7.08 -35.56,18.79 -38.39,34.83 -4.56,25.86 18.96,60.9 64.62,96.46 -49.74,57.52 -72.45,116.22 -57.92,150.22 8.55,20 28.65,30.78 59.75,32.05 28.72,1.17 61.5,-4.26 96.4,-16.01 4.84,38.64 19.26,63.76 42.89,74.72 7.29,3.38 15.31,4.09 23.84,2.12 17.48,-4.04 37.07,-19.68 55.35,-44.15 35.95,10.98 68.94,13.96 93.11,8.38 25.81,-5.96 40.48,-21.76 41.29,-44.49 0.62,-17.46 -6.94,-40.89 -21.92,-67.93 11.24,-2.77 21.96,-6.44 31.89,-10.92 36.17,-16.32 42.39,-32.38 41.23,-42.98 -2.05,-18.9 -28.26,-35.29 -72.18,-45.29 19.37,-28.85 27.5,-54.88 23.54,-75.5 -2.66,-13.79 -10.56,-25.04 -23.49,-33.47 -4.88,-3.18 -9.86,-6.2 -14.85,-9.01 6.58,-15.94 7.7,-29.35 3.3,-39.9 -3.74,-8.99 -11.41,-15.77 -22.79,-20.17 -3.2,-2.25 -22.72,-14.84 -50.73,-8.37 -19.78,4.56 -39.01,17.58 -57.19,38.68 -34.53,2.6 -67.68,13.8 -95.6,32.27 -41.67,-17.01 -79.58,-21.75 -112.7,-14.1"
         style="fill:#fcd2b7;fill-opacity:1;fill-rule:nonzero;stroke:none"
         id="path96" />
      <path
         d="m 2111.41,4932.42 c 212.67,12.39 269.01,-318.2 112.89,-376.41 -59.12,-22.05 -256,-79.37 -308.57,118.8 -28.21,106.34 37.18,248.38 195.68,257.61"
         style="fill:#588085;fill-opacity:1;fill-rule:nonzero;stroke:none"
         id="path98" />
      <path
         d="m 2144.64,4795.93 c 0,0 3.18,-51.79 38.47,-53.06 35.29,-1.28 45.57,58.71 36.16,69.32 -9.42,10.61 -26.66,-45.48 -35.94,-37.73 -9.28,7.75 -40.91,35.21 -38.69,21.47"
         style="fill:#1b162c;fill-opacity:1;fill-rule:nonzero;stroke:none"
         id="path100" />
      <path
         d="m 1983.84,4756.88 c 0,0 3.18,-51.79 38.48,-53.07 35.29,-1.28 45.57,58.71 36.15,69.32 -9.41,10.62 -26.66,-45.47 -35.93,-37.73 -9.28,7.75 -40.91,35.21 -38.7,21.48"
         style="fill:#1b162c;fill-opacity:1;fill-rule:nonzero;stroke:none"
         id="path102" />
      <path
         d="m 2174,4664.49 c 0,0 -7.83,59.31 -48.53,57.94 -40.7,-1.38 -47.68,-71.21 -36,-82.66 11.68,-11.45 27,54.46 38.29,46.29 11.3,-8.16 49.9,-37.19 46.24,-21.57"
         style="fill:#1b162c;fill-opacity:1;fill-rule:nonzero;stroke:none"
         id="path104" />
      <path
         d="m 1176.37,4283.2 c 204.21,-60.68 144.76,-390.73 -21.85,-392.37 -63.09,-0.63 -267.731,12.43 -249.774,216.65 9.637,109.6 119.434,220.93 271.624,175.72"
         style="fill:#ee4c6e;fill-opacity:1;fill-rule:nonzero;stroke:none"
         id="path106" />
      <path
         d="m 1144.11,4009.95 c 0,0 12.81,58.44 -25.93,70.98 -38.74,12.55 -69.06,-50.75 -61.97,-65.48 7.1,-14.74 43.91,42.03 51.76,30.51 7.85,-11.52 34.27,-51.95 36.14,-36.01"
         style="fill:#1b162c;fill-opacity:1;fill-rule:nonzero;stroke:none"
         id="path108" />
      <path
         d="m 1086.02,4158.53 c 0,0 -47.2,74.4 -60.35,76.42 -13.14,2.02 -6.85,-38.35 -6.85,-38.35 0,0 -36.695,18.54 -38.933,3.09 -0.766,-5.28 118.073,-91.89 106.133,-41.16"
         style="fill:#1b162c;fill-opacity:1;fill-rule:nonzero;stroke:none"
         id="path110" />
      <path
         d="m 1143.17,4142.67 c 0,0 67.36,56.81 80.5,54.79 13.15,-2.02 -4.97,-38.64 -4.97,-38.64 0,0 40.57,6.68 38.06,-8.74 -0.85,-5.27 -140.2,-52.22 -113.59,-7.41"
         style="fill:#1b162c;fill-opacity:1;fill-rule:nonzero;stroke:none"
         id="path112" />
      <path
         d="m 1050.43,4114.32 c -2.67,-17.34 -19.13,-29.21 -36.77,-26.5 -17.64,2.71 -29.781,18.97 -27.117,36.31 2.664,17.35 19.127,29.21 36.767,26.5 17.64,-2.71 29.78,-18.96 27.12,-36.31"
         style="fill:#1b162c;fill-opacity:1;fill-rule:nonzero;stroke:none"
         id="path114" />
      <path
         d="m 1234.31,4079 c -2.66,-17.35 -19.12,-29.21 -36.76,-26.5 -17.64,2.71 -29.78,18.96 -27.12,36.31 2.67,17.34 19.13,29.21 36.77,26.5 17.64,-2.71 29.78,-18.97 27.11,-36.31"
         style="fill:#1b162c;fill-opacity:1;fill-rule:nonzero;stroke:none"
         id="path116" />
      <path
         d="m 4040.49,4842.29 c 206.13,53.77 326.07,-259.4 184.36,-347.04 -53.66,-33.19 -235.51,-127.93 -325.84,56.11 -48.48,98.77 -12.15,250.86 141.48,290.93"
         style="fill:#ee4c6e;fill-opacity:1;fill-rule:nonzero;stroke:none"
         id="path118" />
      <path
         d="m 4154.3,4591.79 c 0,0 -19.29,56.63 -58.93,47.32 -39.64,-9.32 -32.82,-79.17 -19.13,-88.11 13.7,-8.94 15.82,58.69 28.5,52.89 12.68,-5.79 56.21,-26.71 49.56,-12.1"
         style="fill:#1b162c;fill-opacity:1;fill-rule:nonzero;stroke:none"
         id="path120" />
      <path
         d="m 4027.7,4688.86 c 0,0 -78.9,39.23 -91.19,34.16 -12.3,-5.08 13.98,-36.37 13.98,-36.37 0,0 -40.99,-3.12 -34.91,-17.5 2.08,-4.92 148.59,-17.52 112.12,19.71"
         style="fill:#1b162c;fill-opacity:1;fill-rule:nonzero;stroke:none"
         id="path122" />
      <path
         d="m 4084.81,4704.86 c 0,0 28.23,83.48 40.52,88.55 12.3,5.08 15.75,-35.64 15.75,-35.64 0,0 31.25,26.71 37.09,12.23 1.99,-4.95 -92.95,-117.25 -93.36,-65.14"
         style="fill:#1b162c;fill-opacity:1;fill-rule:nonzero;stroke:none"
         id="path124" />
      <path
         d="m 4020.12,4632.61 c 6.7,-16.22 -1.25,-34.89 -17.74,-41.7 -16.5,-6.82 -35.3,0.81 -42,17.03 -6.7,16.22 1.25,34.89 17.74,41.7 16.5,6.82 35.3,-0.81 42,-17.03"
         style="fill:#1b162c;fill-opacity:1;fill-rule:nonzero;stroke:none"
         id="path126" />
      <path
         d="m 4195.75,4697.55 c 6.69,-16.22 -1.25,-34.89 -17.75,-41.7 -16.49,-6.81 -35.29,0.82 -41.99,17.04 -6.7,16.22 1.24,34.89 17.74,41.7 16.5,6.81 35.3,-0.82 42,-17.04"
         style="fill:#1b162c;fill-opacity:1;fill-rule:nonzero;stroke:none"
         id="path128" />
      <path
         d="m 2981.06,3727.48 c 203.07,-64.38 137.61,-393.29 -29,-391.9 -63.09,0.52 -267.46,17.3 -245.78,221.17 11.63,109.4 123.44,218.72 274.78,170.73"
         style="fill:#f9ac5f;fill-opacity:1;fill-rule:nonzero;stroke:none"
         id="path130" />
      <path
         d="m 2943.83,3454.87 c 0,0 13.86,58.19 -24.64,71.44 -38.5,13.25 -69.97,-49.48 -63.15,-64.34 6.83,-14.87 44.67,41.22 52.31,29.56 7.63,-11.66 33.32,-52.56 35.48,-36.66"
         style="fill:#1b162c;fill-opacity:1;fill-rule:nonzero;stroke:none"
         id="path132" />
      <path
         d="m 2852.06,3560.93 c -2.98,-17.29 -19.65,-28.86 -37.24,-25.83 -17.59,3.03 -29.43,19.51 -26.45,36.8 2.98,17.3 19.65,28.86 37.24,25.83 17.59,-3.03 29.43,-19.51 26.45,-36.8"
         style="fill:#1b162c;fill-opacity:1;fill-rule:nonzero;stroke:none"
         id="path134" />
      <path
         d="m 3035.27,3522.26 c -2.98,-17.29 -19.65,-28.86 -37.24,-25.83 -17.59,3.03 -29.43,19.51 -26.45,36.8 2.98,17.3 19.65,28.86 37.24,25.83 17.59,-3.03 29.43,-19.51 26.45,-36.8"
         style="fill:#1b162c;fill-opacity:1;fill-rule:nonzero;stroke:none"
         id="path136" />
      <path
         d="m 2439.24,4580.68 c 0,0 -41.68,73.28 -68.94,164.36 -27.27,91.07 -7.92,196.12 95.06,186.81 121.99,-11.03 67.45,-120.12 77.43,-125.21 9.98,-5.07 62.79,96.03 140.07,23.41 78.95,-74.19 29.6,-167.57 -243.62,-249.37"
         style="fill:#ee4c6e;fill-opacity:1;fill-rule:nonzero;stroke:none"
         id="path138" />
      <path
         d="m 2481.5,4666.9 c -0.76,2.35 -1.8,5.25 -2.95,8.47 -7.3,20.33 -12.5,36.63 -7.79,46.1 3.28,6.59 13.94,7.85 39.31,9.33 4.03,0.24 8.89,0.52 12.81,0.87 -16.97,23.83 -25.24,37.42 -23.43,45.53 0.58,2.54 2.1,4.62 4.28,5.85 8.67,4.86 30.88,31.07 42.85,46.43 l 10.11,-7.86 c -3.16,-4.06 -29.99,-38.23 -44.45,-48.31 1.36,-4.99 8.49,-16.56 21.25,-34.47 2.62,-3.68 4.56,-6.44 5.19,-7.57 l 1.74,-3.09 -1.68,-3.77 c -2.57,-4.72 -7.92,-5.22 -27.92,-6.38 -8.66,-0.51 -24.35,-1.42 -28.94,-3.22 -1.51,-6.59 5.59,-26.4 8.72,-35.11 1.21,-3.38 2.3,-6.42 3.09,-8.89 l -12.19,-3.91"
         style="fill:#1b162c;fill-opacity:1;fill-rule:nonzero;stroke:none"
         id="path140" />
      <path
         d="m 293.063,4143.93 c 0,0 -76.969,34.37 -152.868,91.62 -75.8981,57.25 -122.5153,153.36 -34.011,206.83 104.839,63.34 125.476,-56.86 136.531,-55.05 11.051,1.82 -6.258,114.56 99.019,101.8 107.547,-13.04 123.075,-117.5 -48.671,-345.2"
         style="fill:#ee4c6e;fill-opacity:1;fill-rule:nonzero;stroke:none"
         id="path142" />
      <path
         d="m 276.074,4238.43 c -2.011,1.44 -4.562,3.16 -7.398,5.07 -17.922,12.07 -31.762,22.13 -33.574,32.55 -1.258,7.25 6.582,14.58 26.148,30.79 3.113,2.58 6.859,5.68 9.813,8.29 -27.782,9.15 -42.497,15.2 -45.836,22.81 -1.039,2.39 -1.043,4.97 -0.016,7.25 4.102,9.05 6.484,43.32 7.031,62.79 l 12.805,-0.35 c -0.145,-5.14 -1.531,-48.56 -7.211,-65.25 4.051,-3.22 16.648,-8.32 37.527,-15.2 4.301,-1.41 7.492,-2.49 8.668,-3.02 l 3.235,-1.47 0.875,-4.02 c 0.722,-5.33 -3.289,-8.9 -18.719,-21.69 -6.68,-5.53 -18.777,-15.55 -21.41,-19.72 2.679,-6.21 20.133,-17.96 27.812,-23.13 2.977,-2 5.656,-3.81 7.754,-5.33 l -7.504,-10.37"
         style="fill:#1b162c;fill-opacity:1;fill-rule:nonzero;stroke:none"
         id="path144" />
      <path
         d="m 1968.73,4224.16 c 0,0 335.89,-6.5 350.58,0 14.68,6.51 5.51,89.84 -47.72,92.01 -53.23,2.17 -35.95,-12.97 -43.29,-10.79 -7.35,2.16 6.58,107.64 -81.54,107.42 -69.85,-0.18 -78.91,-56.34 -82.59,-82.36 -3.67,-26.03 -12.84,52.05 -75.25,26.02 -62.41,-26.02 -33.04,-73.74 -33.04,-73.74 0,0 -47.18,50.78 -78.39,-27.29 -18.97,-47.48 91.24,-31.27 91.24,-31.27"
         style="fill:#fcd2b7;fill-opacity:1;fill-rule:nonzero;stroke:none"
         id="path146" />
      <path
         d="m 2174.49,4186.82 c 0,0 33.45,17.8 36.02,15.08 2.58,-2.71 1.59,-59.29 1.59,-59.29 0,0 33.79,17.08 41.08,12.65 7.28,-4.43 4.95,-91.66 1.91,-86.55 -3.04,5.1 -19.48,56.16 -24.84,53.66 -5.36,-2.5 -32.29,-13.78 -32.29,-13.78 l -23.47,78.23"
         style="fill:#f9ac5f;fill-opacity:1;fill-rule:nonzero;stroke:none"
         id="path148" />
      <path
         d="m 2091.4,4190.35 c 0,0 43.48,-3.32 44.31,-7.55 0.83,-4.22 -35,-58.6 -35,-58.6 0,0 43.37,-4.22 47.72,-13.02 4.36,-8.79 -51.68,-92.14 -51.48,-85.3 0.19,6.83 15.68,66.59 8.93,67.46 -6.75,0.87 -39.87,6.52 -39.87,6.52 l 25.39,90.49"
         style="fill:#f9ac5f;fill-opacity:1;fill-rule:nonzero;stroke:none"
         id="path150" />
      <path
         d="m 2003.8,4200.85 c 0,0 32.71,-19.14 31.75,-22.75 -0.96,-3.62 -49.65,-32.47 -49.65,-32.47 0,0 32.27,-19.8 32.33,-28.33 0.05,-8.52 -75.43,-52.31 -72.68,-47.04 2.76,5.27 37.59,46.05 32.65,49.3 -4.94,3.25 -28.67,20.26 -28.67,20.26 l 54.27,61.03"
         style="fill:#f9ac5f;fill-opacity:1;fill-rule:nonzero;stroke:none"
         id="path152" />
      <path
         d="m 3109.34,4765.5 c 0,0 335.9,-6.51 350.58,0 14.68,6.5 5.51,89.84 -47.72,92.01 -53.23,2.17 -35.95,-12.97 -43.29,-10.8 -7.34,2.17 6.58,107.65 -81.54,107.42 -69.84,-0.17 -78.91,-56.33 -82.58,-82.36 -3.67,-26.02 -12.85,52.05 -75.26,26.03 -62.41,-26.03 -33.04,-73.75 -33.04,-73.75 0,0 -47.18,50.79 -78.39,-27.29 -18.97,-47.47 91.24,-31.26 91.24,-31.26"
         style="fill:#fcd2b7;fill-opacity:1;fill-rule:nonzero;stroke:none"
         id="path154" />
      <path
         d="m 3315.1,4728.15 c 0,0 33.45,17.8 36.02,15.08 2.58,-2.71 1.59,-59.29 1.59,-59.29 0,0 33.79,17.08 41.08,12.65 7.29,-4.42 4.95,-91.66 1.91,-86.55 -3.04,5.11 -19.48,56.16 -24.84,53.66 -5.35,-2.5 -32.29,-13.77 -32.29,-13.77 l -23.47,78.22"
         style="fill:#f9ac5f;fill-opacity:1;fill-rule:nonzero;stroke:none"
         id="path156" />
      <path
         d="m 3232.01,4731.68 c 0,0 43.49,-3.32 44.31,-7.54 0.83,-4.22 -35,-58.61 -35,-58.61 0,0 43.37,-4.22 47.72,-13.01 4.36,-8.8 -51.68,-92.14 -51.48,-85.31 0.19,6.84 15.68,66.59 8.93,67.47 -6.75,0.87 -39.87,6.51 -39.87,6.51 l 25.39,90.49"
         style="fill:#f9ac5f;fill-opacity:1;fill-rule:nonzero;stroke:none"
         id="path158" />
      <path
         d="m 3144.41,4742.19 c 0,0 32.71,-19.14 31.75,-22.76 -0.96,-3.61 -49.65,-32.46 -49.65,-32.46 0,0 32.27,-19.8 32.33,-28.33 0.05,-8.53 -75.43,-52.31 -72.67,-47.05 2.75,5.27 37.58,46.06 32.64,49.3 -4.94,3.25 -28.67,20.27 -28.67,20.27 l 54.27,61.03"
         style="fill:#f9ac5f;fill-opacity:1;fill-rule:nonzero;stroke:none"
         id="path160" />
      <path
         d="m 1999.44,3782.46 c 0,0 335.89,-6.51 350.58,0 14.68,6.51 5.5,89.84 -47.73,92.01 -53.23,2.17 -35.95,-12.97 -43.29,-10.8 -7.34,2.17 6.58,107.65 -81.53,107.43 -69.85,-0.18 -78.92,-56.34 -82.59,-82.37 -3.67,-26.02 -12.85,52.06 -75.25,26.03 -62.41,-26.03 -33.04,-73.74 -33.04,-73.74 0,0 -47.19,50.78 -78.39,-27.3 -18.97,-47.47 91.24,-31.26 91.24,-31.26"
         style="fill:#fcd2b7;fill-opacity:1;fill-rule:nonzero;stroke:none"
         id="path162" />
      <path
         d="m 2157.67,3762.43 c -9.17,-1.91 -45.42,-45.13 -13.85,-46.22 18.29,-0.62 17.23,43.7 13.85,46.22"
         style="fill:#588085;fill-opacity:1;fill-rule:nonzero;stroke:none"
         id="path164" />
      <path
         d="m 2084.22,3753.24 c -9.16,-1.91 -45.42,-45.14 -13.84,-46.22 18.28,-0.63 17.22,43.69 13.84,46.22"
         style="fill:#588085;fill-opacity:1;fill-rule:nonzero;stroke:none"
         id="path166" />
      <path
         d="m 2025.02,3753.24 c -9.16,-1.91 -45.42,-45.14 -13.84,-46.22 18.28,-0.63 17.22,43.69 13.84,46.22"
         style="fill:#588085;fill-opacity:1;fill-rule:nonzero;stroke:none"
         id="path168" />
      <path
         d="m 2039.27,3676.35 c -9.17,-1.92 -45.42,-45.14 -13.85,-46.22 18.29,-0.63 17.23,43.69 13.85,46.22"
         style="fill:#588085;fill-opacity:1;fill-rule:nonzero;stroke:none"
         id="path170" />
      <path
         d="m 2112.71,3699.46 c -9.16,-1.91 -45.42,-45.14 -13.84,-46.22 18.28,-0.63 17.22,43.69 13.84,46.22"
         style="fill:#588085;fill-opacity:1;fill-rule:nonzero;stroke:none"
         id="path172" />
      <path
         d="m 2093.56,3626.33 c -9.16,-1.91 -45.42,-45.14 -13.84,-46.22 18.28,-0.63 17.22,43.69 13.84,46.22"
         style="fill:#588085;fill-opacity:1;fill-rule:nonzero;stroke:none"
         id="path174" />
      <path
         d="m 2171.91,3666.46 c -9.16,-1.91 -45.42,-45.14 -13.84,-46.22 18.28,-0.62 17.22,43.7 13.84,46.22"
         style="fill:#588085;fill-opacity:1;fill-rule:nonzero;stroke:none"
         id="path176" />
      <path
         d="m 2205.87,3739.32 c -9.17,-1.91 -45.43,-45.14 -13.85,-46.22 18.29,-0.63 17.23,43.69 13.85,46.22"
         style="fill:#588085;fill-opacity:1;fill-rule:nonzero;stroke:none"
         id="path178" />
      <path
         d="m 2239.58,3685.22 c -9.16,-1.91 -45.42,-45.14 -13.84,-46.22 18.28,-0.62 17.22,43.7 13.84,46.22"
         style="fill:#588085;fill-opacity:1;fill-rule:nonzero;stroke:none"
         id="path180" />
      <path
         d="m 2262.85,3753.24 c -9.16,-1.91 -45.42,-45.14 -13.84,-46.22 18.28,-0.63 17.22,43.69 13.84,46.22"
         style="fill:#588085;fill-opacity:1;fill-rule:nonzero;stroke:none"
         id="path182" />
      <path
         d="m 4116.57,4235.63 c 0,0 335.89,-6.5 350.58,0 14.68,6.51 5.5,89.84 -47.73,92.01 -53.23,2.17 -35.94,-12.96 -43.29,-10.8 -7.34,2.17 6.58,107.65 -81.53,107.43 -69.85,-0.18 -78.92,-56.34 -82.59,-82.36 -3.67,-26.03 -12.85,52.05 -75.25,26.02 -62.41,-26.02 -33.04,-73.74 -33.04,-73.74 0,0 -47.19,50.79 -78.39,-27.3 -18.97,-47.47 91.24,-31.26 91.24,-31.26"
         style="fill:#fcd2b7;fill-opacity:1;fill-rule:nonzero;stroke:none"
         id="path184" />
      <path
         d="m 4274.8,4215.61 c -9.17,-1.92 -45.42,-45.14 -13.84,-46.22 18.28,-0.63 17.22,43.69 13.84,46.22"
         style="fill:#588085;fill-opacity:1;fill-rule:nonzero;stroke:none"
         id="path186" />
      <path
         d="m 4201.35,4206.41 c -9.16,-1.91 -45.42,-45.14 -13.84,-46.22 18.28,-0.62 17.22,43.7 13.84,46.22"
         style="fill:#588085;fill-opacity:1;fill-rule:nonzero;stroke:none"
         id="path188" />
      <path
         d="m 4142.15,4206.41 c -9.16,-1.91 -45.42,-45.14 -13.84,-46.22 18.28,-0.62 17.22,43.7 13.84,46.22"
         style="fill:#588085;fill-opacity:1;fill-rule:nonzero;stroke:none"
         id="path190" />
      <path
         d="m 4156.4,4129.52 c -9.17,-1.91 -45.42,-45.14 -13.84,-46.22 18.28,-0.63 17.22,43.69 13.84,46.22"
         style="fill:#588085;fill-opacity:1;fill-rule:nonzero;stroke:none"
         id="path192" />
      <path
         d="m 4229.84,4152.63 c -9.16,-1.91 -45.42,-45.13 -13.84,-46.22 18.28,-0.62 17.22,43.7 13.84,46.22"
         style="fill:#588085;fill-opacity:1;fill-rule:nonzero;stroke:none"
         id="path194" />
      <path
         d="m 4210.69,4079.5 c -9.16,-1.91 -45.42,-45.14 -13.84,-46.22 18.28,-0.62 17.22,43.7 13.84,46.22"
         style="fill:#588085;fill-opacity:1;fill-rule:nonzero;stroke:none"
         id="path196" />
      <path
         d="m 4289.04,4119.63 c -9.16,-1.91 -45.42,-45.13 -13.84,-46.22 18.29,-0.62 17.22,43.7 13.84,46.22"
         style="fill:#588085;fill-opacity:1;fill-rule:nonzero;stroke:none"
         id="path198" />
      <path
         d="m 4323,4192.49 c -9.17,-1.91 -45.42,-45.13 -13.84,-46.22 18.28,-0.63 17.22,43.7 13.84,46.22"
         style="fill:#588085;fill-opacity:1;fill-rule:nonzero;stroke:none"
         id="path200" />
      <path
         d="m 4356.71,4138.39 c -9.16,-1.91 -45.42,-45.13 -13.84,-46.21 18.28,-0.63 17.22,43.69 13.84,46.21"
         style="fill:#588085;fill-opacity:1;fill-rule:nonzero;stroke:none"
         id="path202" />
      <path
         d="m 4379.98,4206.41 c -9.16,-1.91 -45.42,-45.14 -13.84,-46.22 18.28,-0.62 17.22,43.7 13.84,46.22"
         style="fill:#588085;fill-opacity:1;fill-rule:nonzero;stroke:none"
         id="path204" />
      <path
         d="m 387.93,4755.05 c 0,0 335.894,-6.5 350.582,0 14.683,6.51 5.504,89.84 -47.727,92.02 -53.226,2.16 -35.945,-12.97 -43.289,-10.8 -7.344,2.16 6.582,107.64 -81.535,107.42 -69.848,-0.17 -78.914,-56.33 -82.586,-82.36 -3.672,-26.03 -12.848,52.05 -75.254,26.03 -62.406,-26.03 -33.039,-73.75 -33.039,-73.75 0,0 -47.187,50.78 -78.391,-27.29 -18.972,-47.48 91.239,-31.27 91.239,-31.27"
         style="fill:#fcd2b7;fill-opacity:1;fill-rule:nonzero;stroke:none"
         id="path206" />
      <path
         d="m 546.16,4735.03 c -9.164,-1.92 -45.422,-45.14 -13.84,-46.22 18.282,-0.63 17.219,43.69 13.84,46.22"
         style="fill:#588085;fill-opacity:1;fill-rule:nonzero;stroke:none"
         id="path208" />
      <path
         d="m 472.715,4725.84 c -9.164,-1.92 -45.422,-45.14 -13.844,-46.22 18.285,-0.63 17.223,43.69 13.844,46.22"
         style="fill:#588085;fill-opacity:1;fill-rule:nonzero;stroke:none"
         id="path210" />
      <path
         d="m 413.512,4725.84 c -9.16,-1.92 -45.418,-45.14 -13.84,-46.22 18.281,-0.63 17.223,43.69 13.84,46.22"
         style="fill:#588085;fill-opacity:1;fill-rule:nonzero;stroke:none"
         id="path212" />
      <path
         d="m 427.762,4648.94 c -9.164,-1.91 -45.422,-45.14 -13.844,-46.22 18.281,-0.63 17.223,43.69 13.844,46.22"
         style="fill:#588085;fill-opacity:1;fill-rule:nonzero;stroke:none"
         id="path214" />
      <path
         d="m 501.207,4672.05 c -9.164,-1.91 -45.422,-45.14 -13.84,-46.22 18.281,-0.62 17.219,43.7 13.84,46.22"
         style="fill:#588085;fill-opacity:1;fill-rule:nonzero;stroke:none"
         id="path216" />
      <path
         d="m 482.055,4598.92 c -9.164,-1.91 -45.422,-45.13 -13.84,-46.22 18.281,-0.62 17.219,43.7 13.84,46.22"
         style="fill:#588085;fill-opacity:1;fill-rule:nonzero;stroke:none"
         id="path218" />
      <path
         d="m 560.406,4639.05 c -9.164,-1.91 -45.422,-45.13 -13.84,-46.21 18.282,-0.63 17.219,43.69 13.84,46.21"
         style="fill:#588085;fill-opacity:1;fill-rule:nonzero;stroke:none"
         id="path220" />
      <path
         d="m 594.359,4711.91 c -9.164,-1.91 -45.421,-45.13 -13.839,-46.21 18.281,-0.63 17.218,43.69 13.839,46.21"
         style="fill:#588085;fill-opacity:1;fill-rule:nonzero;stroke:none"
         id="path222" />
      <path
         d="m 628.074,4657.82 c -9.16,-1.92 -45.418,-45.14 -13.84,-46.22 18.286,-0.63 17.223,43.69 13.84,46.22"
         style="fill:#588085;fill-opacity:1;fill-rule:nonzero;stroke:none"
         id="path224" />
      <path
         d="m 651.348,4725.84 c -9.164,-1.92 -45.422,-45.14 -13.844,-46.22 18.281,-0.63 17.223,43.69 13.844,46.22"
         style="fill:#588085;fill-opacity:1;fill-rule:nonzero;stroke:none"
         id="path226" />
      <path
         d="m 529.711,4499.58 c 0,0 112.887,-109.28 118.352,-109.1 5.464,0.18 69.109,152.72 81.89,154.9 12.785,2.19 151.32,-122.05 151.32,-122.05 0,0 23.118,38.96 32.293,42.96 9.172,3.99 44.649,-118.47 44.649,-118.47 0,0 -143.375,-12.34 -137.746,-0.81 5.633,11.53 35.82,43.61 35.82,43.61 0,0 -110.898,87.38 -112.906,79.56 -2.012,-7.83 -75.75,-157.22 -86.34,-149.04 -10.586,8.18 -156.902,89.62 -156.902,89.62 l 29.57,88.82"
         style="fill:#fcd2b7;fill-opacity:1;fill-rule:nonzero;stroke:none"
         id="path228" />
      <path
         d="m 3445.01,3989.86 c 0,0 -7.9,-156.92 -12.01,-160.52 -4.12,-3.6 -154.75,64.42 -165.59,57.29 -10.83,-7.12 -27.26,-192.48 -27.26,-192.48 0,0 -43.49,12.69 -52.92,9.34 -9.43,-3.34 48.24,-117.04 48.24,-117.04 0,0 113.2,88.85 101.21,93.43 -11.98,4.58 -55.94,7.42 -55.94,7.42 0,0 21.39,139.56 28.2,135.21 6.81,-4.35 162.67,-63.17 164.83,-49.97 2.15,13.2 53.48,172.59 53.48,172.59 l -82.24,44.73"
         style="fill:#fcd2b7;fill-opacity:1;fill-rule:nonzero;stroke:none"
         id="path230" />
      <path
         d="m 4442.13,3955.28 c 0,0 64.78,143.13 69.92,144.98 5.15,1.85 120.44,-116.59 133.13,-113.92 12.69,2.67 95.82,169.16 95.82,169.16 0,0 35.83,-27.73 45.82,-28.07 10,-0.34 -2.05,126.58 -2.05,126.58 0,0 -137.86,-41.26 -128.39,-49.91 9.48,-8.64 49.35,-27.38 49.35,-27.38 0,0 -70.98,-122.04 -75.73,-115.51 -4.74,6.54 -128.26,118.33 -135.1,106.83 C 4488.06,4156.55 4381.96,4027 4381.96,4027 l 60.17,-71.72"
         style="fill:#fcd2b7;fill-opacity:1;fill-rule:nonzero;stroke:none"
         id="path232" />
      <path
         d="m 2448.95,4004.85 c 0,0 46.66,44.17 117.08,32.06 61.86,-10.64 67.24,-90.45 72.08,-100.39 15.84,-32.5 29.81,-47.92 24.48,-51.67 -5.33,-3.75 -28.59,-4.81 -26.09,-8.56 2.5,-3.75 8.08,-12.39 5.78,-15.61 -6.25,-8.75 -51.46,7.25 -60,-22.91 -13.33,-47.12 28.33,-43.75 54.17,-29.59 0,0 8.33,-26.66 3.33,-32.91 -5,-6.25 -52.08,1.25 -58.33,-16.25 -6.25,-17.5 3.33,-50.91 3.33,-55.91 h -130 c 0,0 -0.23,25.09 -0.83,62.59 -0.61,37.5 -83.15,151.65 -5,239.15"
         style="fill:#f06172;fill-opacity:1;fill-rule:nonzero;stroke:none"
         id="path234" />
      <path
         d="m 2683.62,3885.43 c 0,0 44.41,22.21 46.04,21.67 1.62,-0.54 10.29,-29.79 8.66,-30.33 -1.62,-0.55 -47.12,-13 -48.75,-13 -1.62,0 -5.95,21.66 -5.95,21.66"
         style="fill:#fcd2b7;fill-opacity:1;fill-rule:nonzero;stroke:none"
         id="path236" />
      <path
         d="m 2695.66,3842.58 c 0,0 49.6,2.37 50.87,1.22 1.27,-1.15 -2.62,-31.41 -4.32,-31.25 -1.71,0.16 -48.36,7.14 -49.85,7.8 -1.49,0.65 3.3,22.23 3.3,22.23"
         style="fill:#fcd2b7;fill-opacity:1;fill-rule:nonzero;stroke:none"
         id="path238" />
      <path
         d="m 2685.66,3802.27 c 0,0 43.58,-23.8 44.07,-25.44 0.48,-1.64 -18.59,-25.45 -19.96,-24.43 -1.38,1.03 -37.58,31.28 -38.5,32.61 -0.93,1.33 14.39,17.26 14.39,17.26"
         style="fill:#fcd2b7;fill-opacity:1;fill-rule:nonzero;stroke:none"
         id="path240" />
      <path
         d="m 3797.19,4890.35 c 0,0 -46.66,44.17 -117.08,32.05 -61.86,-10.64 -67.24,-90.45 -72.08,-100.38 -15.84,-32.5 -29.81,-47.92 -24.48,-51.67 5.33,-3.75 28.59,-4.81 26.09,-8.56 -2.5,-3.75 -8.08,-12.39 -5.78,-15.61 6.25,-8.75 51.46,7.25 60,-22.91 13.33,-47.12 -28.33,-43.75 -54.17,-29.59 0,0 -8.33,-26.66 -3.33,-32.91 5,-6.25 52.08,1.25 58.33,-16.25 6.25,-17.5 -3.33,-50.91 -3.33,-55.91 h 130 c 0,0 0.22,25.09 0.83,62.59 0.61,37.5 83.14,151.65 5,239.15"
         style="fill:#f06172;fill-opacity:1;fill-rule:nonzero;stroke:none"
         id="path242" />
      <path
         d="m 3562.52,4770.93 c 0,0 -44.41,22.21 -46.04,21.67 -1.62,-0.55 -10.29,-29.8 -8.67,-30.33 1.63,-0.55 47.13,-13 48.75,-13 1.63,0 5.96,21.66 5.96,21.66"
         style="fill:#fcd2b7;fill-opacity:1;fill-rule:nonzero;stroke:none"
         id="path244" />
      <path
         d="m 3550.48,4728.07 c 0,0 -49.61,2.38 -50.87,1.23 -1.27,-1.15 2.61,-31.41 4.32,-31.25 1.7,0.16 48.36,7.14 49.85,7.8 1.48,0.65 -3.3,22.22 -3.3,22.22"
         style="fill:#fcd2b7;fill-opacity:1;fill-rule:nonzero;stroke:none"
         id="path246" />
      <path
         d="m 3560.48,4687.77 c 0,0 -43.58,-23.8 -44.07,-25.44 -0.48,-1.64 18.59,-25.45 19.96,-24.43 1.38,1.03 37.57,31.28 38.5,32.61 0.93,1.33 -14.39,17.26 -14.39,17.26"
         style="fill:#fcd2b7;fill-opacity:1;fill-rule:nonzero;stroke:none"
         id="path248" />
      <path
         d="m 1781.79,4593.77 c 0,0 -122.76,8.2 -179.43,-65.02 -56.67,-73.23 -0.3,-147.98 31.37,-168.94 31.66,-20.96 73.33,-12.63 80,-15.96 6.66,-3.33 -16.67,-51.67 -3.34,-51.67 13.34,0 60,51.56 96.67,53.34 36.67,1.77 90,-8.45 126.67,52.53 30.17,50.18 23.06,193.15 -151.94,195.72"
         style="fill:#f26039;fill-opacity:1;fill-rule:nonzero;stroke:none"
         id="path250" />
      <path
         d="m 1702.78,4468.68 c 0,-14.12 -11.45,-25.56 -25.56,-25.56 -14.12,0 -25.56,11.44 -25.56,25.56 0,14.11 11.44,25.55 25.56,25.55 14.11,0 25.56,-11.44 25.56,-25.55"
         style="fill:#1b162c;fill-opacity:1;fill-rule:nonzero;stroke:none"
         id="path252" />
      <path
         d="m 1788.35,4468.68 c 0,-14.12 -11.44,-25.56 -25.56,-25.56 -14.11,0 -25.56,11.44 -25.56,25.56 0,14.11 11.45,25.55 25.56,25.55 14.12,0 25.56,-11.44 25.56,-25.55"
         style="fill:#1b162c;fill-opacity:1;fill-rule:nonzero;stroke:none"
         id="path254" />
      <path
         d="m 1873.74,4468.68 c 0,-14.12 -11.44,-25.56 -25.56,-25.56 -14.11,0 -25.55,11.44 -25.55,25.56 0,14.11 11.44,25.55 25.55,25.55 14.12,0 25.56,-11.44 25.56,-25.55"
         style="fill:#1b162c;fill-opacity:1;fill-rule:nonzero;stroke:none"
         id="path256" />
      <path
         d="m 649.047,4272.9 c 0,0 122.766,8.2 179.43,-65.03 56.668,-73.23 0.3,-147.97 -31.368,-168.94 -31.664,-20.96 -73.332,-12.62 -80,-15.96 -6.664,-3.33 16.668,-51.66 3.336,-51.66 -13.336,0 -60,51.55 -96.668,53.33 -36.668,1.77 -90,-8.44 -126.668,52.54 -30.168,50.18 -23.062,193.14 151.938,195.72"
         style="fill:#f9ac5f;fill-opacity:1;fill-rule:nonzero;stroke:none"
         id="path258" />
      <path
         d="m 728.059,4147.8 c 0,-14.12 11.445,-25.56 25.558,-25.56 14.117,0 25.563,11.44 25.563,25.56 0,14.11 -11.446,25.56 -25.563,25.56 -14.113,0 -25.558,-11.45 -25.558,-25.56"
         style="fill:#1b162c;fill-opacity:1;fill-rule:nonzero;stroke:none"
         id="path260" />
      <path
         d="m 642.484,4147.8 c 0,-14.12 11.446,-25.56 25.559,-25.56 14.117,0 25.559,11.44 25.559,25.56 0,14.11 -11.442,25.56 -25.559,25.56 -14.113,0 -25.559,-11.45 -25.559,-25.56"
         style="fill:#1b162c;fill-opacity:1;fill-rule:nonzero;stroke:none"
         id="path262" />
      <path
         d="m 557.094,4147.8 c 0,-14.12 11.441,-25.56 25.558,-25.56 14.118,0 25.559,11.44 25.559,25.56 0,14.11 -11.441,25.56 -25.559,25.56 -14.117,0 -25.558,-11.45 -25.558,-25.56"
         style="fill:#1b162c;fill-opacity:1;fill-rule:nonzero;stroke:none"
         id="path264" />
      <path
         d="m 2977.68,4593.77 c 0,0 122.77,8.2 179.43,-65.02 56.67,-73.23 0.3,-147.98 -31.36,-168.94 -31.67,-20.96 -73.34,-12.63 -80,-15.96 -6.67,-3.33 16.66,-51.67 3.33,-51.67 -13.33,0 -60,51.56 -96.67,53.34 -36.66,1.77 -90,-8.45 -126.66,52.53 -30.17,50.18 -23.07,193.15 151.93,195.72"
         style="fill:#f06172;fill-opacity:1;fill-rule:nonzero;stroke:none"
         id="path266" />
      <path
         d="m 3056.7,4468.68 c 0,-14.12 11.44,-25.56 25.56,-25.56 14.11,0 25.55,11.44 25.55,25.56 0,14.11 -11.44,25.55 -25.55,25.55 -14.12,0 -25.56,-11.44 -25.56,-25.55"
         style="fill:#1b162c;fill-opacity:1;fill-rule:nonzero;stroke:none"
         id="path268" />
      <path
         d="m 2971.12,4468.68 c 0,-14.12 11.44,-25.56 25.56,-25.56 14.12,0 25.56,11.44 25.56,25.56 0,14.11 -11.44,25.55 -25.56,25.55 -14.12,0 -25.56,-11.44 -25.56,-25.55"
         style="fill:#1b162c;fill-opacity:1;fill-rule:nonzero;stroke:none"
         id="path270" />
      <path
         d="m 2885.73,4468.68 c 0,-14.12 11.44,-25.56 25.56,-25.56 14.11,0 25.56,11.44 25.56,25.56 0,14.11 -11.45,25.55 -25.56,25.55 -14.12,0 -25.56,-11.44 -25.56,-25.55"
         style="fill:#1b162c;fill-opacity:1;fill-rule:nonzero;stroke:none"
         id="path272" />
      <path
         d="m 3684.08,3849.64 c 0,0 -122.77,8.2 -179.44,-65.03 -56.66,-73.23 -0.3,-147.97 31.37,-168.93 31.67,-20.97 73.33,-12.63 80,-15.97 6.67,-3.33 -16.67,-51.66 -3.33,-51.66 13.33,0 60,51.56 96.66,53.33 36.67,1.78 90,-8.44 126.67,52.54 30.17,50.18 23.07,193.14 -151.93,195.72"
         style="fill:#588085;fill-opacity:1;fill-rule:nonzero;stroke:none"
         id="path274" />
      <path
         d="m 3605.06,3724.54 c 0,-14.12 -11.44,-25.56 -25.56,-25.56 -14.11,0 -25.56,11.44 -25.56,25.56 0,14.12 11.45,25.56 25.56,25.56 14.12,0 25.56,-11.44 25.56,-25.56"
         style="fill:#1b162c;fill-opacity:1;fill-rule:nonzero;stroke:none"
         id="path276" />
      <path
         d="m 3690.64,3724.54 c 0,-14.12 -11.45,-25.56 -25.56,-25.56 -14.12,0 -25.56,11.44 -25.56,25.56 0,14.12 11.44,25.56 25.56,25.56 14.11,0 25.56,-11.44 25.56,-25.56"
         style="fill:#1b162c;fill-opacity:1;fill-rule:nonzero;stroke:none"
         id="path278" />
      <path
         d="m 3776.03,3724.54 c 0,-14.12 -11.44,-25.56 -25.56,-25.56 -14.12,0 -25.56,11.44 -25.56,25.56 0,14.12 11.44,25.56 25.56,25.56 14.12,0 25.56,-11.44 25.56,-25.56"
         style="fill:#1b162c;fill-opacity:1;fill-rule:nonzero;stroke:none"
         id="path280" />
      <path
         d="m 4466.87,4969.11 c 0,0 -122.77,8.21 -179.44,-65.02 -56.66,-73.23 -0.3,-147.98 31.37,-168.94 31.67,-20.96 73.33,-12.63 80,-15.96 6.67,-3.33 -16.67,-51.67 -3.33,-51.67 13.33,0 60,51.56 96.66,53.34 36.67,1.77 90,-8.45 126.67,52.53 30.17,50.18 23.07,193.15 -151.93,195.72"
         style="fill:#f9ac5f;fill-opacity:1;fill-rule:nonzero;stroke:none"
         id="path282" />
      <path
         d="m 4387.85,4844.02 c 0,-14.12 -11.44,-25.56 -25.56,-25.56 -14.11,0 -25.56,11.44 -25.56,25.56 0,14.11 11.45,25.55 25.56,25.55 14.12,0 25.56,-11.44 25.56,-25.55"
         style="fill:#1b162c;fill-opacity:1;fill-rule:nonzero;stroke:none"
         id="path284" />
      <path
         d="m 4473.43,4844.02 c 0,-14.12 -11.45,-25.56 -25.56,-25.56 -14.12,0 -25.56,11.44 -25.56,25.56 0,14.11 11.44,25.55 25.56,25.55 14.11,0 25.56,-11.44 25.56,-25.55"
         style="fill:#1b162c;fill-opacity:1;fill-rule:nonzero;stroke:none"
         id="path286" />
      <path
         d="m 4558.82,4844.02 c 0,-14.12 -11.44,-25.56 -25.56,-25.56 -14.12,0 -25.56,11.44 -25.56,25.56 0,14.11 11.44,25.55 25.56,25.55 14.12,0 25.56,-11.44 25.56,-25.55"
         style="fill:#1b162c;fill-opacity:1;fill-rule:nonzero;stroke:none"
         id="path288" />
      <path
         d="m 1488.02,4701.02 c -32.9,-0.14 -59.68,26.2 -59.82,58.83 -0.13,32.62 26.44,59.18 59.34,59.31 32.91,0.14 59.69,-26.2 59.82,-58.82 0.14,-32.63 -26.43,-59.19 -59.34,-59.32 z m 146.79,89.18 c -9.27,3.7 -24.9,6.59 -39.51,7.03 -2.53,7.59 -5.84,14.81 -9.79,21.6 14.97,15.66 31.17,37.47 28.41,47.13 -4.78,16.72 -21.49,35.81 -42.37,26.86 -10.5,-4.5 -26.1,-15.62 -37.3,-27.31 -5.66,2.58 -11.56,4.68 -17.66,6.31 -0.71,21.22 -4.71,46.45 -13.19,51.16 -15.2,8.44 -40.51,10.13 -48.95,-10.97 -4.09,-10.23 -7.16,-28.16 -7.06,-43.96 -2.96,-1.14 -5.85,-2.41 -8.68,-3.79 -15.72,15.79 -40.32,34.89 -50.75,31.92 -16.71,-4.78 -35.81,-21.49 -26.86,-42.38 4.52,-10.54 15.73,-26.23 27.49,-37.44 -3.33,-6.06 -6.08,-12.46 -8.31,-19.13 -21.94,-0.3 -50.22,-4.23 -55.24,-13.27 -8.44,-15.19 -10.13,-40.51 10.97,-48.94 9.96,-3.99 27.24,-7 42.72,-7.06 1.31,-4.61 2.81,-9.14 4.65,-13.49 -14.39,-15.47 -29.12,-35.85 -26.47,-45.1 4.77,-16.71 21.48,-35.81 42.37,-26.85 8.04,3.44 19.08,10.8 28.85,19.31 6.11,-3.86 12.6,-7.13 19.41,-9.76 0.83,-20.94 4.83,-45.22 13.14,-49.84 15.19,-8.44 40.51,-10.13 48.95,10.97 3.34,8.35 5.98,21.85 6.8,35.12 10.24,2.71 19.91,6.8 28.82,12.13 14.43,-12.49 31.17,-23.61 39.3,-21.29 16.71,4.78 35.81,21.49 26.86,42.38 -3.61,8.42 -11.51,20.11 -20.53,30.2 2.39,5.28 4.44,10.74 6.04,16.42 20.71,0.91 44.32,4.9 48.87,13.09 8.44,15.19 10.12,40.5 -10.98,48.95"
         style="fill:#fcd2b7;fill-opacity:1;fill-rule:nonzero;stroke:none"
         id="path290" />
      <path
         d="m 3932.66,3976.77 c -32.9,-0.13 -59.69,26.21 -59.82,58.84 -0.13,32.62 26.43,59.18 59.34,59.32 32.9,0.13 59.68,-26.21 59.82,-58.84 0.13,-32.62 -26.44,-59.18 -59.34,-59.32 z m 146.79,89.18 c -9.27,3.71 -24.91,6.6 -39.52,7.03 -2.53,7.6 -5.83,14.82 -9.78,21.61 14.96,15.66 31.16,37.47 28.4,47.14 -4.77,16.7 -21.48,35.8 -42.37,26.85 -10.49,-4.5 -26.09,-15.62 -37.29,-27.31 -5.66,2.59 -11.56,4.68 -17.66,6.31 -0.72,21.22 -4.72,46.44 -13.2,51.16 -15.19,8.44 -40.51,10.13 -48.95,-10.97 -4.09,-10.23 -7.16,-28.16 -7.06,-43.96 -2.95,-1.14 -5.84,-2.41 -8.68,-3.79 -15.72,15.79 -40.32,34.89 -50.75,31.91 -16.71,-4.77 -35.8,-21.48 -26.85,-42.37 4.52,-10.54 15.72,-26.24 27.48,-37.45 -3.32,-6.05 -6.08,-12.45 -8.3,-19.11 -21.95,-0.31 -50.22,-4.23 -55.25,-13.28 -8.44,-15.19 -10.13,-40.51 10.97,-48.95 9.97,-3.98 27.24,-6.98 42.73,-7.05 1.31,-4.61 2.8,-9.14 4.64,-13.49 -14.38,-15.47 -29.11,-35.85 -26.47,-45.1 4.78,-16.71 21.49,-35.81 42.37,-26.86 8.05,3.45 19.09,10.81 28.85,19.32 6.12,-3.86 12.61,-7.13 19.42,-9.76 0.83,-20.94 4.82,-45.23 13.13,-49.84 15.19,-8.44 40.51,-10.13 48.95,10.97 3.34,8.35 5.99,21.84 6.8,35.11 10.25,2.72 19.92,6.81 28.82,12.14 14.44,-12.49 31.18,-23.61 39.31,-21.29 16.71,4.78 35.81,21.49 26.85,42.37 -3.61,8.43 -11.51,20.12 -20.53,30.21 2.4,5.28 4.45,10.74 6.04,16.42 20.72,0.91 44.33,4.9 48.87,13.08 8.44,15.2 10.13,40.52 -10.97,48.95"
         style="fill:#fcd2b7;fill-opacity:1;fill-rule:nonzero;stroke:none"
         id="path292" />
      <path
         d="m 142.102,4721.02 c 0,0 96.894,44.07 98.14,-52.42 1.297,-100.53 -87.051,-51.58 -100.433,-60.88 -13.387,-9.3 -11.899,-50.01 -24.114,-48.67 -12.218,1.33 -33.6911,19.31 -33.6911,19.31 0,0 16.6211,44.18 36.4841,55.52 19.864,11.35 75.551,-18.58 90.172,29.95 17.375,57.68 -32.125,33.48 -37.867,20.74 -5.742,-12.74 -62.426,5.73 -28.691,36.45"
         style="fill:#fcd2b7;fill-opacity:1;fill-rule:nonzero;stroke:none"
         id="path294" />
      <path
         d="m 105.723,4515.55 c -6.5121,-11.78 -21.3441,-16.05 -33.1253,-9.54 -11.7813,6.51 -16.0508,21.35 -9.5391,33.13 6.5156,11.78 21.3437,16.05 33.125,9.54 11.7854,-6.52 16.0544,-21.35 9.5394,-33.13"
         style="fill:#fcd2b7;fill-opacity:1;fill-rule:nonzero;stroke:none"
         id="path296" />
      <path
         d="m 1736,3765.81 c 0,0 47.07,95.48 109.15,21.59 64.67,-76.98 -34.7,-95.05 -39.17,-110.72 -4.48,-15.68 22.46,-46.24 12.16,-52.94 -10.3,-6.71 -38.3,-6.4 -38.3,-6.4 0,0 -15.12,44.72 -6.93,66.08 8.18,21.36 70.23,33.47 50.82,80.28 -23.09,55.65 -46.07,5.57 -42.44,-7.93 3.62,-13.49 -51.94,-35.09 -45.29,10.04"
         style="fill:#fcd2b7;fill-opacity:1;fill-rule:nonzero;stroke:none"
         id="path298" />
      <path
         d="m 1837.97,3583.76 c 2.42,-13.24 -6.35,-25.94 -19.59,-28.36 -13.25,-2.42 -25.94,6.35 -28.36,19.6 -2.42,13.24 6.35,25.94 19.59,28.36 13.24,2.42 25.94,-6.35 28.36,-19.6"
         style="fill:#fcd2b7;fill-opacity:1;fill-rule:nonzero;stroke:none"
         id="path300" />
      <path
         d="m 3573.35,4174.28 c 0,0 76.41,74.12 110.05,-16.32 35.06,-94.23 -64.61,-77.88 -74.08,-91.14 -9.48,-13.25 5.63,-51.09 -6.33,-53.94 -11.95,-2.86 -38.22,6.84 -38.22,6.84 0,0 0.78,47.19 15.67,64.57 14.88,17.37 77.4,7.93 74.83,58.54 -3.05,60.17 -41.52,20.72 -42.64,6.79 -1.12,-13.93 -60.71,-15.61 -39.28,24.66"
         style="fill:#fcd2b7;fill-opacity:1;fill-rule:nonzero;stroke:none"
         id="path302" />
      <path
         d="m 3608.24,3968.56 c -2.16,-13.28 -14.69,-22.3 -27.98,-20.13 -13.28,2.17 -22.3,14.7 -20.13,27.98 2.17,13.29 14.7,22.3 27.98,20.13 13.29,-2.16 22.3,-14.69 20.13,-27.98"
         style="fill:#fcd2b7;fill-opacity:1;fill-rule:nonzero;stroke:none"
         id="path304" />
      <path
         d="m 2763.53,4877.59 c 0,0 20.33,104.49 99.63,49.51 82.63,-57.28 -8.5,-100.83 -8.7,-117.12 -0.19,-16.3 33.83,-38.71 25.65,-47.89 -8.17,-9.17 -35.27,-16.23 -35.27,-16.23 0,0 -26.34,39.18 -24.06,61.94 2.29,22.76 58.98,50.75 27.94,90.81 -36.89,47.63 -45.91,-6.73 -38.86,-18.8 7.04,-12.07 -40.89,-47.52 -46.33,-2.22"
         style="fill:#fcd2b7;fill-opacity:1;fill-rule:nonzero;stroke:none"
         id="path306" />
      <path
         d="m 2909.75,4728.73 c 5.81,-12.14 0.69,-26.69 -11.45,-32.51 -12.15,-5.81 -26.7,-0.68 -32.52,11.46 -5.81,12.14 -0.69,26.7 11.46,32.51 12.14,5.81 26.69,0.69 32.51,-11.46"
         style="fill:#fcd2b7;fill-opacity:1;fill-rule:nonzero;stroke:none"
         id="path308" />
      <path
         d="m 2470.31,3628.2 c -198.86,29.82 -271.27,-211.58 -241.11,-266.5 0,0 14.67,-0.25 34.15,-0.41 4.47,68.66 36.23,226.99 170.15,226.99 151.7,0 170.54,-184.88 172.77,-220.99 13.06,1.06 24.61,2.13 32.19,3.08 28.34,3.54 -8.24,233.86 -168.15,257.83"
         style="fill:#f06172;fill-opacity:1;fill-rule:nonzero;stroke:none"
         id="path310" />
      <path
         d="m 2424.31,3534.15 c -92.38,-7.07 -113,-122.93 -117.6,-172.96 24.24,0.14 46.19,0.67 51.87,2.09 14.17,3.54 -1.82,115.16 69.05,129.33 70.86,14.18 70.86,-130.71 85.04,-130.9 5.72,-0.08 22.75,0.74 42.83,1.98 -8.84,54.42 -39.09,177.51 -131.19,170.46"
         style="fill:#588085;fill-opacity:1;fill-rule:nonzero;stroke:none"
         id="path312" />
      <path
         d="m 2433.5,3588.28 c -133.92,0 -165.68,-158.33 -170.15,-226.99 13.25,-0.11 28.71,-0.17 43.36,-0.1 4.6,50.03 25.22,165.89 117.6,172.96 92.1,7.05 122.35,-116.04 131.19,-170.46 16.37,1.01 34.7,2.29 50.77,3.6 -2.23,36.11 -21.07,220.99 -172.77,220.99"
         style="fill:#f9ac5f;fill-opacity:1;fill-rule:nonzero;stroke:none"
         id="path314" />
      <path
         d="m 3715.82,4509.75 c -198.86,29.81 -271.27,-211.59 -241.11,-266.5 0,0 14.67,-0.25 34.15,-0.41 4.47,68.66 36.23,226.98 170.15,226.98 151.7,0 170.54,-184.88 172.77,-220.99 13.06,1.06 24.61,2.13 32.19,3.08 28.34,3.54 -8.24,233.86 -168.15,257.84"
         style="fill:#f06172;fill-opacity:1;fill-rule:nonzero;stroke:none"
         id="path316" />
      <path
         d="m 3669.82,4415.69 c -92.38,-7.07 -113,-122.93 -117.6,-172.95 24.24,0.13 46.19,0.66 51.87,2.08 14.18,3.55 -1.82,115.16 69.05,129.34 70.87,14.17 70.87,-130.71 85.04,-130.91 5.72,-0.08 22.75,0.75 42.83,1.98 -8.84,54.43 -39.08,177.51 -131.19,170.46"
         style="fill:#588085;fill-opacity:1;fill-rule:nonzero;stroke:none"
         id="path318" />
      <path
         d="m 3679.01,4469.82 c -133.92,0 -165.68,-158.32 -170.15,-226.98 13.25,-0.11 28.71,-0.18 43.36,-0.1 4.6,50.02 25.22,165.88 117.6,172.95 92.11,7.05 122.35,-116.03 131.19,-170.46 16.37,1.01 34.7,2.29 50.77,3.6 -2.23,36.11 -21.07,220.99 -172.77,220.99"
         style="fill:#f9ac5f;fill-opacity:1;fill-rule:nonzero;stroke:none"
         id="path320" />
      <path
         d="m 1391.65,4567.54 c -187.2,73.4 -311.61,-145.78 -294.45,-206.04 0,0 14.24,-3.52 33.2,-8.02 19.66,65.94 85.92,213.21 216.47,183.35 147.88,-33.82 125.03,-218.25 119.15,-253.95 12.97,-1.88 24.47,-3.41 32.07,-4.17 28.42,-2.87 44.1,229.81 -106.44,288.83"
         style="fill:#f06172;fill-opacity:1;fill-rule:nonzero;stroke:none"
         id="path322" />
      <path
         d="m 1325.84,4486.11 c -91.63,13.7 -137.56,-94.64 -153.2,-142.38 23.66,-5.28 45.18,-9.65 51.04,-9.53 14.6,0.29 23.89,112.66 96.14,110.68 72.24,-1.99 39.94,-143.22 53.71,-146.57 5.56,-1.35 22.35,-4.35 42.2,-7.62 3.51,55.03 1.47,181.76 -89.89,195.42"
         style="fill:#588085;fill-opacity:1;fill-rule:nonzero;stroke:none"
         id="path324" />
      <path
         d="m 1346.87,4536.83 c -130.55,29.86 -196.81,-117.41 -216.47,-183.35 12.89,-3.05 27.94,-6.57 42.24,-9.75 15.64,47.74 61.57,156.08 153.2,142.38 91.36,-13.66 93.4,-140.39 89.89,-195.42 16.18,-2.66 34.33,-5.5 50.29,-7.81 5.88,35.7 28.73,220.13 -119.15,253.95"
         style="fill:#f9ac5f;fill-opacity:1;fill-rule:nonzero;stroke:none"
         id="path326" />
      <path
         d="m 2979.42,4110.96 c -6.42,-1.87 -11.13,-1.21 -14.78,0.44 -0.96,36.86 -2.52,67.4 -5.09,68.42 -2.59,1.04 -33.06,1.26 -68.98,1.14 -1.42,3.55 -1.6,8.16 1.46,13.89 8.26,15.5 17.56,55.8 -25.84,54.77 -43.4,-1.03 -34.1,-31 -27.8,-52.7 2.14,-7.35 1.04,-12.51 -1.19,-16.3 -37.89,-0.34 -69.9,-0.8 -69.9,-0.8 0,0 -0.24,-35.39 0.1,-76.35 -3.74,-3.13 -9.65,-5.51 -17.99,-1.06 -15.5,8.27 -55.8,17.57 -54.76,-25.84 1.03,-43.39 31,-34.09 52.7,-27.79 11.05,3.21 17.43,-0.64 21.05,-5.18 0.94,-33.74 2.59,-61.07 5.48,-63.21 2.95,-2.19 30.42,-2.75 63.71,-2.58 1.34,-3.52 1.48,-8.04 -1.52,-13.66 -8.27,-15.5 -17.57,-55.8 25.83,-54.77 43.4,1.04 34.1,31 27.8,52.7 -2.15,7.42 -1.03,12.63 1.25,16.42 40.17,0.77 75.19,1.89 75.19,1.89 0,0 -0.01,36.88 -0.54,78.93 3.22,0.73 7.07,0.51 11.76,-1.99 15.5,-8.27 55.8,-17.57 54.76,25.83 -1.03,43.4 -31,34.1 -52.7,27.8"
         style="fill:#f26039;fill-opacity:1;fill-rule:nonzero;stroke:none"
         id="path328" />
      <path
         d="m 1760.65,4175.5 c -3.22,-5.87 -7.01,-8.73 -10.76,-10.15 -26.74,25.39 -49.44,45.88 -51.98,44.79 -2.57,-1.1 -24.27,-22.49 -49.59,-47.97 -3.51,1.5 -6.89,4.63 -8.79,10.85 -5.11,16.8 -27.03,51.88 -56.99,20.46 -29.96,-31.42 -2.19,-46.03 17.61,-56.93 6.7,-3.68 9.58,-8.11 10.68,-12.36 -26.55,-27.04 -48.86,-49.99 -48.86,-49.99 0,0 24.85,-25.2 54.06,-53.92 -0.44,-4.86 -2.93,-10.72 -11.97,-13.47 -16.81,-5.11 -51.88,-27.04 -20.46,-57 31.42,-29.95 46.03,-2.19 56.92,17.61 5.55,10.09 12.78,11.88 18.55,11.23 24.52,-23.2 45.01,-41.35 48.58,-40.82 3.63,0.53 23.44,19.56 46.87,43.22 3.43,-1.54 6.72,-4.63 8.58,-10.73 5.11,-16.81 27.03,-51.88 56.99,-20.46 29.96,31.42 2.19,46.03 -17.61,56.92 -6.77,3.72 -9.65,8.2 -10.72,12.49 27.85,28.95 51.83,54.5 51.83,54.5 0,0 -26.09,26.08 -56.19,55.43 1.76,2.8 4.64,5.37 9.72,6.91 16.8,5.12 51.87,27.04 20.46,57 -31.42,29.95 -46.04,2.19 -56.93,-17.61"
         style="fill:#f9ac5f;fill-opacity:1;fill-rule:nonzero;stroke:none"
         id="path330" />
      <path
         d="m 3138.97,4248.23 c 5.86,-3.23 8.73,-7.02 10.14,-10.77 -25.39,-26.74 -45.88,-49.44 -44.79,-51.98 1.1,-2.57 22.49,-24.27 47.98,-49.59 -1.51,-3.5 -4.64,-6.89 -10.86,-8.78 -16.8,-5.12 -51.87,-27.04 -20.45,-57 31.42,-29.95 46.03,-2.19 56.92,17.61 3.68,6.71 8.11,9.58 12.37,10.68 27.03,-26.55 49.99,-48.86 49.99,-48.86 0,0 25.19,24.85 53.91,54.06 4.86,-0.44 10.72,-2.92 13.47,-11.97 5.12,-16.81 27.04,-51.88 57,-20.46 29.96,31.42 2.19,46.04 -17.61,56.92 -10.09,5.55 -11.88,12.78 -11.23,18.55 23.2,24.53 41.35,45.01 40.82,48.58 -0.53,3.63 -19.56,23.44 -43.22,46.87 1.54,3.43 4.64,6.73 10.73,8.58 16.81,5.12 51.88,27.04 20.46,56.99 -31.42,29.96 -46.03,2.2 -56.92,-17.61 -3.72,-6.76 -8.2,-9.64 -12.49,-10.72 -28.95,27.86 -54.5,51.83 -54.5,51.83 0,0 -26.08,-26.08 -55.43,-56.19 -2.79,1.76 -5.36,4.64 -6.91,9.72 -5.11,16.81 -27.03,51.88 -56.99,20.46 -29.96,-31.42 -2.19,-46.04 17.61,-56.92"
         style="fill:#588085;fill-opacity:1;fill-rule:nonzero;stroke:none"
         id="path332" />
      <path
         d="m 1990.11,3419.86 c 0,0 122.5,101.99 132.5,108.78 10,6.79 39.67,-35 39.67,-35 0,0 -142.1,-114.85 -144.6,-111.67 -2.5,3.18 -27.57,37.89 -27.57,37.89"
         style="fill:#fcd2b7;fill-opacity:1;fill-rule:nonzero;stroke:none"
         id="path334" />
      <path
         d="m 2041.49,3534.87 c 0,0 98.49,-113.2 105.82,-122.8 7.34,-9.61 -34.65,-42.33 -34.65,-42.33 0,0 -96.48,110.75 -108.61,126.66 -2.45,3.22 37.44,38.47 37.44,38.47"
         style="fill:#fcd2b7;fill-opacity:1;fill-rule:nonzero;stroke:none"
         id="path336" />
      <path
         d="m 4756.03,4811.57 c 0,0 122.5,101.99 132.5,108.78 10,6.79 39.67,-35 39.67,-35 0,0 -142.1,-114.85 -144.6,-111.67 -2.5,3.18 -27.57,37.89 -27.57,37.89"
         style="fill:#fcd2b7;fill-opacity:1;fill-rule:nonzero;stroke:none"
         id="path338" />
      <path
         d="m 4807.41,4926.58 c 0,0 98.49,-113.2 105.82,-122.8 7.34,-9.61 -34.65,-42.33 -34.65,-42.33 0,0 -96.48,110.75 -108.61,126.66 -2.45,3.22 37.44,38.47 37.44,38.47"
         style="fill:#fcd2b7;fill-opacity:1;fill-rule:nonzero;stroke:none"
         id="path340" />
      <path
         d="m 3270.77,4452.51 c 0,0 122.5,101.99 132.5,108.78 10,6.79 39.67,-35 39.67,-35 0,0 -142.1,-114.85 -144.6,-111.67 -2.5,3.18 -27.57,37.89 -27.57,37.89"
         style="fill:#fcd2b7;fill-opacity:1;fill-rule:nonzero;stroke:none"
         id="path342" />
      <path
         d="m 3322.15,4567.52 c 0,0 98.49,-113.2 105.82,-122.8 7.34,-9.61 -34.65,-42.33 -34.65,-42.33 0,0 -96.48,110.75 -108.6,126.66 -2.46,3.22 37.43,38.47 37.43,38.47"
         style="fill:#fcd2b7;fill-opacity:1;fill-rule:nonzero;stroke:none"
         id="path344" />
      <path
         d="m 111.574,4832.94 c 0,0 122.5,101.99 132.5,108.78 10,6.79 39.668,-35 39.668,-35 0,0 -142.101,-114.85 -144.601,-111.67 -2.5,3.18 -27.567,37.89 -27.567,37.89"
         style="fill:#fcd2b7;fill-opacity:1;fill-rule:nonzero;stroke:none"
         id="path346" />
      <path
         d="m 162.957,4947.95 c 0,0 98.481,-113.2 105.816,-122.8 7.336,-9.61 -34.656,-42.33 -34.656,-42.33 0,0 -96.476,110.75 -108.601,126.66 -2.453,3.22 37.441,38.47 37.441,38.47"
         style="fill:#fcd2b7;fill-opacity:1;fill-rule:nonzero;stroke:none"
         id="path348" />
      <path
         d="m 1724.83,4907.98 c 0,0 80.48,0.44 85.28,-14.71 4.79,-15.14 -39.35,-93.14 -39.35,-93.14 0,0 73.56,-10.46 71.07,-24.81 -2.5,-14.36 -70.65,-140.02 -79.78,-135.98 -9.14,4.05 -5.51,117.88 -5.51,117.88 l -57.97,1.67 26.26,149.09"
         style="fill:#f9ac5f;fill-opacity:1;fill-rule:nonzero;stroke:none"
         id="path350" />
      <path
         d="m 3105.66,4024.19 c 0,0 76.39,-25.34 76.09,-41.23 -0.3,-15.88 -67.08,-75.65 -67.08,-75.65 0,0 66.35,-33.45 59.39,-46.25 -6.97,-12.8 -111.74,-110.06 -119.1,-103.3 -7.36,6.76 32.5,113.45 32.5,113.45 l -54.39,20.12 72.59,132.86"
         style="fill:#f9ac5f;fill-opacity:1;fill-rule:nonzero;stroke:none"
         id="path352" />
      <path
         d="m 2411.25,3283.39 c 0,0 -51.92,-158.99 16.21,-160.42 105.04,-2.19 17.32,221.98 -16.21,160.42"
         style="fill:#588085;fill-opacity:1;fill-rule:nonzero;stroke:none"
         id="path354" />
      <path
         d="m 336.426,4116.45 c 0,0 13.051,-166.75 76.512,-141.93 97.843,38.27 -69.161,211.64 -76.512,141.93"
         style="fill:#588085;fill-opacity:1;fill-rule:nonzero;stroke:none"
         id="path356" />
      <path
         d="m 1412.84,4188.34 c 0,0 -19.45,-166.13 47.62,-154.04 103.4,18.63 -26.93,221.01 -47.62,154.04"
         style="fill:#588085;fill-opacity:1;fill-rule:nonzero;stroke:none"
         id="path358" />
      <path
         d="m 2545.27,3225.14 c 0,0 -84.19,-144.53 -17.88,-160.24 102.23,-24.23 63.6,213.37 17.88,160.24"
         style="fill:#588085;fill-opacity:1;fill-rule:nonzero;stroke:none"
         id="path360" />
      <path
         d="m 2363.27,4150.51 c 0,0 -84.19,-144.52 -17.88,-160.24 102.23,-24.23 63.6,213.37 17.88,160.24"
         style="fill:#588085;fill-opacity:1;fill-rule:nonzero;stroke:none"
         id="path362" />
      <path
         d="m 4380.22,4617.88 c 0,0 -84.18,-144.52 -17.88,-160.24 102.23,-24.23 63.6,213.37 17.88,160.24"
         style="fill:#588085;fill-opacity:1;fill-rule:nonzero;stroke:none"
         id="path364" />
    </g>
  </g>
</svg>
